<?xml version="1.0" encoding="UTF-8" standalone="no"?>
<svg width="50px" height="37px" viewBox="0 0 50 37" version="1.1" xmlns="http://www.w3.org/2000/svg" xmlns:xlink="http://www.w3.org/1999/xlink" xmlns:sketch="http://www.bohemiancoding.com/sketch/ns">
    <!-- Generator: Sketch 3.5.2 (25235) - http://www.bohemiancoding.com/sketch -->
    <title>cp-logo-gray</title>
    <desc>Created with Sketch.</desc>
    <defs></defs>
    <g id="Page-1" stroke="none" stroke-width="1" fill="none" fill-rule="evenodd" sketch:type="MSPage">
        <g id="Layout-general-Copy" sketch:type="MSArtboardGroup" transform="translate(-945.000000, -1853.000000)" fill="#E4E6E9">
            <g id="cp-logo-gray" sketch:type="MSLayerGroup" transform="translate(945.000000, 1853.000000)">
                <path d="M40.2599388,9.881893 C39.0366972,8.66378601 37.0795107,8.66378601 35.9174312,9.881893 L35.733945,10.0646091 L34.0214067,11.7699588 L19.5259939,26.2654321 L16.529052,29.2497942 C15.3669725,30.4069959 13.8379205,31.0160494 12.1865443,31.0160494 C10.5351682,31.0160494 9.00611621,30.4069959 7.8440367,29.2497942 C6.68195719,28.0925926 6.07033639,26.5699588 6.07033639,24.9255144 C6.07033639,23.28107 6.68195719,21.7584362 7.8440367,20.6012346 L26.4373089,2.08600823 C24.0519878,-0.289300412 20.1987768,-0.289300412 17.7522936,2.02510288 L3.62385321,16.0333333 C-1.20795107,20.844856 -1.20795107,28.5798354 3.62385321,33.391358 C8.45565749,38.2028807 16.2232416,38.2028807 21.0550459,33.391358 L40.3211009,14.2061728 C41.4831804,13.0489712 41.4831804,11.1 40.2599388,9.881893 Z M46.3761468,3.60864198 C41.5443425,-1.20288066 33.7767584,-1.20288066 28.9449541,3.60864198 L9.74006116,22.7938272 C8.51681957,24.0119342 8.51681957,25.9609053 9.74006116,27.118107 C10.9633028,28.336214 12.9204893,28.336214 14.0825688,27.118107 L14.266055,26.9353909 L15.9785933,25.2300412 L30.4740061,10.7954733 L33.2874618,7.99382716 L33.470948,7.81111111 C34.6330275,6.65390947 36.1620795,6.04485597 37.8134557,6.04485597 C39.4648318,6.04485597 40.9938838,6.65390947 42.1559633,7.81111111 C43.3180428,8.96831276 43.9296636,10.4909465 43.9296636,12.1353909 C43.9296636,13.7798354 43.3180428,15.3024691 42.1559633,16.4596708 L23.6238532,34.9748971 C26.0091743,37.3502058 29.8623853,37.3502058 32.3088685,35.0358025 L46.3761468,21.027572 C51.2079511,16.155144 51.2079511,8.42016461 46.3761468,3.60864198 Z" id="Shape" sketch:type="MSShapeGroup"></path>
            </g>
        </g>
    </g>
</svg>