<?xml version="1.0" encoding="UTF-8" standalone="no"?>
<svg width="141px" height="22px" viewBox="0 0 141 22" version="1.1" xmlns="http://www.w3.org/2000/svg" xmlns:xlink="http://www.w3.org/1999/xlink">
    <!-- Generator: Sketch 3.6.1 (26313) - http://www.bohemiancoding.com/sketch -->
    <title>ComproPago</title>
    <desc>Created with Sketch.</desc>
    <defs></defs>
    <g id="V2" stroke="none" stroke-width="1" fill="none" fill-rule="evenodd">
        <g id="Layout-general" transform="translate(-390.000000, -19.000000)">
            <g id="main-menu">
                <g id="ComproPago" transform="translate(390.000000, 19.000000)">
                    <g id="Group" transform="translate(28.372098, 1.582865)">
                        <path d="M4.03369052,3.4295412 C4.42796102,2.96187649 4.91321703,2.65010002 5.45913003,2.43185649 C6.00504303,2.2447906 6.58128454,2.12008001 7.18785454,2.12008001 C7.85508154,2.12008001 8.49198005,2.18243531 9.06822155,2.3071459 C9.64446305,2.43185649 10.0993906,2.52538943 10.4026756,2.61892237 C10.5239896,2.65010002 10.6149751,2.65010002 10.7059606,2.68127766 C10.7969461,2.68127766 10.8879316,2.65010002 10.9182601,2.58774472 L11.2518736,1.7147706 C11.3125306,1.55888236 11.3428591,1.46534942 11.3428591,1.37181648 C11.3428591,1.30946118 11.3125306,1.24710589 11.2215451,1.15357295 C11.1002311,1.06004001 10.8879316,0.935329418 10.6149751,0.841796476 C10.3420186,0.717085887 10.0084051,0.623552945 9.64446305,0.498842356 C9.28052105,0.405309414 8.88625055,0.311776473 8.46165155,0.249421178 C8.03705255,0.187065884 7.61245354,0.155888236 7.15752604,0.155888236 C6.15668553,0.155888236 5.21650203,0.311776473 4.33697552,0.623552945 C3.45744902,0.935329418 2.69923652,1.43417177 2.06233801,2.05772472 C1.42543951,2.71245531 0.909855005,3.49189649 0.545913003,4.45840356 C0.181971001,5.42491062 -4.4408921e-15,6.54730592 -4.4408921e-15,7.85676711 C-4.4408921e-15,9.16622829 0.181971001,10.2886236 0.545913003,11.2551307 C0.909855005,12.2216377 1.42543951,13.0322566 2.06233801,13.6558095 C2.69923652,14.3105401 3.45744902,14.7782048 4.33697552,15.0899813 C5.21650203,15.4017577 6.15668553,15.557646 7.15752604,15.557646 C7.61245354,15.557646 8.03705255,15.5264683 8.46165155,15.464113 C8.88625055,15.4017577 9.28052105,15.3082248 9.64446305,15.2146919 C10.0084051,15.1211589 10.3420186,14.9964483 10.6149751,14.8717377 C10.8879316,14.7470272 11.1002311,14.6534942 11.2215451,14.5599613 C11.2822021,14.497606 11.3125306,14.404073 11.3428591,14.3417177 C11.3428591,14.2481848 11.3125306,14.1234742 11.2518736,13.9364083 L10.9182601,13.1569671 C10.8576031,13.0946118 10.7969461,13.0634342 10.6756321,13.0634342 C10.5846466,13.0634342 10.4633326,13.0946118 10.3723471,13.1257895 C10.0690621,13.2193224 9.61413455,13.3128554 9.03789305,13.437566 C8.46165155,13.5622766 7.82475304,13.6246319 7.15752604,13.6246319 C6.55095604,13.6246319 5.97471453,13.5310989 5.42880153,13.3128554 C4.88288853,13.1257895 4.42796102,12.7828354 4.00336202,12.3151707 C3.57876302,11.847506 3.27547802,11.2551307 3.03285002,10.5380448 C2.79022202,9.78978124 2.66890802,8.91680712 2.66890802,7.85676711 C2.66890802,6.7967271 2.79022202,5.92375298 3.03285002,5.17548945 C3.30580652,4.48958121 3.63942002,3.86602826 4.03369052,3.4295412 L4.03369052,3.4295412 Z M21.3512641,5.98610827 C20.9873221,5.48726592 20.5020661,5.05077886 19.8651676,4.77018003 C19.2282691,4.45840356 18.4397281,4.30251532 17.4692161,4.30251532 C16.4987041,4.30251532 15.7101631,4.45840356 15.0732646,4.77018003 C14.4363661,5.0819565 13.9511101,5.48726592 13.5871681,6.01728592 C13.2232261,6.54730592 12.9805981,7.13968122 12.8289556,7.82558946 C12.6773131,8.5114977 12.6166561,9.22858359 12.6166561,10.0080248 C12.6166561,10.787466 12.6773131,11.5045518 12.8289556,12.1904601 C12.9805981,12.8763683 13.2232261,13.4687436 13.5871681,13.967586 C13.9511101,14.4664283 14.4363661,14.8717377 15.0732646,15.1835142 C15.7101631,15.4952907 16.4987041,15.6200013 17.4692161,15.6200013 C18.4397281,15.6200013 19.2282691,15.464113 19.8651676,15.1835142 C20.5020661,14.8717377 20.9873221,14.4664283 21.3512641,13.967586 C21.7152061,13.4687436 21.9578341,12.8451907 22.1094766,12.1592824 C22.2611191,11.4733742 22.3217761,10.7562883 22.3217761,9.97684712 C22.3217761,9.22858359 22.2611191,8.48032005 22.1094766,7.79441181 C21.9578341,7.10850358 21.7152061,6.48495063 21.3512641,5.98610827 L21.3512641,5.98610827 Z M19.8045106,11.4421965 C19.7438536,11.9098613 19.6225396,12.283993 19.4405686,12.6269471 C19.2585976,12.9699013 19.0159696,13.2505001 18.6823561,13.437566 C18.3487426,13.6246319 17.9544721,13.7493424 17.4388876,13.7493424 C16.9233031,13.7493424 16.4987041,13.6558095 16.1954191,13.437566 C15.8921341,13.2505001 15.6191776,12.9699013 15.4372066,12.6269471 C15.2552356,12.283993 15.1339216,11.8786836 15.0732646,11.4421965 C15.0126076,10.9745318 14.9822791,10.5068671 14.9822791,9.97684712 C14.9822791,9.47800477 15.0126076,8.97916241 15.0732646,8.5114977 C15.1339216,8.04383299 15.2552356,7.63852358 15.4372066,7.29556946 C15.6191776,6.95261534 15.8618056,6.67201651 16.1954191,6.48495063 C16.4987041,6.29788475 16.9233031,6.17317416 17.4388876,6.17317416 C17.9241436,6.17317416 18.3487426,6.2667071 18.6823561,6.48495063 C19.0159696,6.67201651 19.2585976,6.95261534 19.4405686,7.29556946 C19.6225396,7.63852358 19.7438536,8.04383299 19.8045106,8.5114977 C19.8651676,8.97916241 19.8954961,9.47800477 19.8954961,9.97684712 C19.9258246,10.5068671 19.8954961,10.9745318 19.8045106,11.4421965 L19.8045106,11.4421965 Z M36.2425577,5.36255533 C35.9089442,5.01960121 35.5146737,4.73900238 35.0900747,4.58311415 C34.6351472,4.39604826 34.1802197,4.30251532 33.6646352,4.30251532 C33.1793792,4.30251532 32.6941232,4.45840356 32.2088672,4.73900238 C31.7236112,5.05077886 31.3596692,5.45608827 31.0867127,5.98610827 C30.7530992,5.42491062 30.3285002,5.01960121 29.8129157,4.70782474 C29.2973312,4.42722591 28.7210897,4.27133767 28.0841912,4.27133767 C27.6595922,4.27133767 27.2046647,4.39604826 26.7800657,4.67664709 C26.3251381,4.92606827 26.0218531,5.30020003 25.8095536,5.79904239 L25.7792251,5.79904239 L25.5669256,4.95724591 C25.5365971,4.80135768 25.5062686,4.70782474 25.4456116,4.64546944 C25.3849546,4.58311415 25.2939691,4.5519365 25.1423266,4.5519365 L24.1414861,4.5519365 C23.8685296,4.5519365 23.7472156,4.67664709 23.7472156,4.95724591 L23.7472156,14.934093 C23.7472156,15.2146919 23.8685296,15.3394025 24.1414861,15.3394025 L25.7488966,15.3394025 C26.0218531,15.3394025 26.1431671,15.2146919 26.1431671,14.934093 L26.1431671,9.29093888 C26.1431671,7.13968122 26.7194087,6.04846357 27.8718917,6.04846357 C28.1448482,6.04846357 28.3571477,6.14199651 28.5391187,6.29788475 C28.7210897,6.45377298 28.8727322,6.67201651 28.9940462,6.95261534 C29.1153602,7.23321416 29.1760172,7.54499064 29.2366742,7.9191224 C29.2973312,8.29325417 29.2973312,8.66738594 29.2973312,9.07269535 L29.2973312,14.9652707 C29.2973312,15.2458695 29.4186452,15.3705801 29.6916017,15.3705801 L31.3596692,15.3705801 C31.6022972,15.3705801 31.7539397,15.2458695 31.7539397,14.9652707 L31.7539397,9.16622829 C31.7842682,7.10850358 32.3605097,6.07964122 33.4826642,6.07964122 C33.7556207,6.07964122 33.9679202,6.17317416 34.1498912,6.32906239 C34.3318622,6.48495063 34.4835047,6.70319416 34.6048187,6.98379299 C34.7261327,7.26439181 34.7867897,7.57616828 34.8474467,7.95030005 C34.9081037,8.32443182 34.9081037,8.69856359 34.9081037,9.103873 L34.9081037,14.9652707 C34.9081037,15.2458695 35.0294177,15.3705801 35.3023742,15.3705801 L36.9704417,15.3705801 C37.2130697,15.3705801 37.3647122,15.2458695 37.3647122,14.9652707 L37.3647122,8.38678711 C37.3647122,7.73205652 37.2737267,7.17085887 37.0614272,6.64083887 C36.8491277,6.14199651 36.5761712,5.7366871 36.2425577,5.36255533 L36.2425577,5.36255533 Z M47.5854168,5.51844356 C47.1911463,5.0819565 46.7362188,4.77018003 46.2206343,4.58311415 C45.7050498,4.39604826 45.1591368,4.30251532 44.5828953,4.30251532 C43.8246827,4.30251532 43.1271272,4.42722591 42.5205572,4.67664709 C41.9139872,4.92606827 41.3984027,5.33137768 41.0041322,5.86139768 L40.9738037,5.86139768 L40.7615042,4.98842356 C40.7311757,4.83253533 40.7008472,4.73900238 40.6401902,4.67664709 C40.5795332,4.61429179 40.4885477,4.58311415 40.3369052,4.58311415 L39.3360647,4.58311415 C39.0631082,4.58311415 38.9417942,4.70782474 38.9417942,4.98842356 L38.9417942,19.5483848 C38.9417942,19.8289837 39.0631082,19.9536942 39.3360647,19.9536942 L40.9434752,19.9536942 C41.2164317,19.9536942 41.3377457,19.8289837 41.3377457,19.5483848 L41.3377457,14.1234742 L41.3680742,14.1234742 C41.6107022,14.5287836 42.0049727,14.8717377 42.4599002,15.1835142 C42.9148277,15.4952907 43.6123832,15.6511789 44.4615813,15.6511789 C45.0378228,15.6511789 45.5837358,15.557646 46.1296488,15.3705801 C46.6755618,15.1835142 47.1304893,14.8717377 47.5247598,14.4352507 C47.9190303,13.9987636 48.2223153,13.4063883 48.4649433,12.6893024 C48.7075713,11.9722165 48.8288853,11.0680648 48.8288853,9.97684712 C48.8288853,8.91680712 48.7075713,8.01265535 48.4952718,7.29556946 C48.2829723,6.51612828 47.9796873,5.95493063 47.5854168,5.51844356 L47.5854168,5.51844356 Z M46.2812913,11.9098613 C46.1599773,12.4087036 46.0083348,12.814013 45.8263638,13.1257895 C45.6443928,13.4063883 45.4017648,13.6246319 45.1288083,13.7181648 C44.8558518,13.8116977 44.5525668,13.874053 44.1886247,13.874053 C43.3090982,13.874053 42.6115427,13.5622766 42.1262867,12.9699013 C41.6410307,12.3463483 41.3984027,11.3486636 41.3984027,9.94566948 C41.3984027,8.573853 41.6410307,7.57616828 42.1262867,6.95261534 C42.6115427,6.36024004 43.3090982,6.04846357 44.1886247,6.04846357 C44.5525668,6.04846357 44.8861803,6.11081886 45.1591368,6.2043518 C45.4624218,6.32906239 45.6747213,6.51612828 45.8870208,6.7967271 C46.0689918,7.07732593 46.2206343,7.48263534 46.3116198,7.9814777 C46.4026053,8.48032005 46.4632623,9.13505065 46.4632623,9.91449183 C46.4329338,10.7562883 46.4026053,11.4110189 46.2812913,11.9098613 L46.2812913,11.9098613 Z M55.1068848,4.39604826 C54.8945853,4.39604826 54.6519573,4.39604826 54.4396578,4.42722591 C54.1970298,4.45840356 53.9847303,4.48958121 53.7421023,4.58311415 C53.4994743,4.67664709 53.2871748,4.80135768 53.0445468,4.98842356 C52.8019188,5.17548945 52.5896193,5.42491062 52.3773198,5.76786474 L52.3469913,5.76786474 L52.1346918,4.98842356 C52.0740348,4.86371297 52.0133778,4.73900238 51.9830493,4.67664709 C51.9527208,4.61429179 51.8617353,4.58311415 51.7100928,4.58311415 L50.7092523,4.58311415 C50.4362958,4.58311415 50.3149818,4.70782474 50.3149818,4.98842356 L50.3149818,14.9652707 C50.3149818,15.2458695 50.4362958,15.3705801 50.7092523,15.3705801 L52.3166628,15.3705801 C52.5896193,15.3705801 52.7109333,15.2458695 52.7109333,14.9652707 L52.7109333,8.60503064 C52.7109333,7.26439181 53.3478318,6.57848357 54.6216288,6.57848357 C54.7126143,6.57848357 54.8035998,6.57848357 54.9249138,6.60966122 C55.0158993,6.64083887 55.1068848,6.64083887 55.1978703,6.64083887 C55.2888558,6.64083887 55.3495128,6.60966122 55.3798413,6.54730592 C55.4404983,6.48495063 55.4404983,6.39141769 55.4404983,6.2667071 L55.4404983,4.70782474 C55.4404983,4.5519365 55.4101698,4.45840356 55.3798413,4.42722591 C55.3495128,4.42722591 55.2281988,4.39604826 55.1068848,4.39604826 L55.1068848,4.39604826 Z M65.6308744,7.79441181 C65.4792319,7.10850358 65.2366039,6.48495063 64.8726619,5.98610827 C64.5087199,5.48726592 64.0234639,5.05077886 63.3865654,4.77018003 C62.7496669,4.45840356 61.9611258,4.30251532 60.9906138,4.30251532 C60.0201018,4.30251532 59.2315608,4.45840356 58.5946623,4.77018003 C57.9577638,5.0819565 57.4725078,5.48726592 57.1085658,6.01728592 C56.7446238,6.54730592 56.5019958,7.13968122 56.3503533,7.82558946 C56.1987108,8.5114977 56.1380538,9.22858359 56.1380538,10.0080248 C56.1380538,10.787466 56.1987108,11.5045518 56.3503533,12.1904601 C56.5019958,12.8763683 56.7446238,13.4687436 57.1085658,13.967586 C57.4725078,14.4664283 57.9577638,14.8717377 58.5946623,15.1835142 C59.2315608,15.4952907 60.0201018,15.6200013 60.9906138,15.6200013 C61.9611258,15.6200013 62.7496669,15.464113 63.3865654,15.1835142 C64.0234639,14.8717377 64.5087199,14.4664283 64.8726619,13.967586 C65.2366039,13.4687436 65.4792319,12.8451907 65.6308744,12.1592824 C65.7825169,11.4733742 65.8431739,10.7562883 65.8431739,9.97684712 C65.8431739,9.19740594 65.7825169,8.48032005 65.6308744,7.79441181 L65.6308744,7.79441181 Z M63.3259084,11.4421965 C63.2652514,11.9098613 63.1439374,12.283993 62.9619664,12.6269471 C62.7799954,12.9699013 62.5373674,13.2505001 62.2037539,13.437566 C61.8701403,13.6246319 61.4758698,13.7493424 60.9602853,13.7493424 C60.4447008,13.7493424 60.0201018,13.6558095 59.7168168,13.437566 C59.4135318,13.2505001 59.1405753,12.9699013 58.9586043,12.6269471 C58.7766333,12.283993 58.6553193,11.8786836 58.5946623,11.4421965 C58.5340053,10.9745318 58.5036768,10.5068671 58.5036768,9.97684712 C58.5036768,9.47800477 58.5340053,8.97916241 58.5946623,8.5114977 C58.6553193,8.04383299 58.7766333,7.63852358 58.9586043,7.29556946 C59.1405753,6.95261534 59.3832033,6.67201651 59.7168168,6.48495063 C60.0201018,6.29788475 60.4447008,6.17317416 60.9602853,6.17317416 C61.4455413,6.17317416 61.8701403,6.2667071 62.2037539,6.48495063 C62.5373674,6.67201651 62.7799954,6.95261534 62.9619664,7.29556946 C63.1439374,7.63852358 63.2652514,8.04383299 63.3259084,8.5114977 C63.3865654,8.97916241 63.4168939,9.47800477 63.4168939,9.97684712 C63.4168939,10.5068671 63.3865654,10.9745318 63.3259084,11.4421965 L63.3259084,11.4421965 Z" id="Shape" fill="#00AAEF"></path>
                        <path d="M78.0958879,2.12008001 C77.7016174,1.6524153 77.2163614,1.27828354 76.6097914,0.997684712 C76.0032214,0.717085887 75.3359944,0.592375298 74.5777819,0.592375298 L70.7260624,0.592375298 C70.4531059,0.592375298 70.3014634,0.717085887 70.2711349,0.997684712 L68.3301109,15.1523366 C68.2997824,15.4329354 68.4210964,15.557646 68.6940529,15.557646 L70.4227774,15.557646 C70.6654054,15.557646 70.8170479,15.4329354 70.8777049,15.1523366 L71.4539464,11.0057095 L73.1523424,11.0057095 C73.9105549,11.0057095 74.6081104,10.8809989 75.3056659,10.6004001 C75.9728929,10.3198012 76.5794629,9.94566948 77.0950474,9.47800477 C77.6106319,9.01034006 78.0655594,8.44914241 78.3991729,7.82558946 C78.7327864,7.20203652 78.9754144,6.51612828 79.0663999,5.83022004 C79.1573854,5.11313415 79.1270569,4.42722591 78.9754144,3.80367297 C78.7631149,3.14894237 78.4901584,2.58774472 78.0958879,2.12008001 L78.0958879,2.12008001 Z M76.4884774,5.83022004 C76.3368349,6.95261534 75.9728929,7.79441181 75.3663229,8.32443182 C74.7597529,8.88562947 73.9712119,9.16622829 72.9703714,9.16622829 L71.6662459,9.16622829 L72.5761009,2.49421178 L73.8802264,2.49421178 C74.8810669,2.49421178 75.6089509,2.80598825 76.0335499,3.33600826 C76.5188059,3.89720591 76.6401199,4.70782474 76.4884774,5.83022004 L76.4884774,5.83022004 Z M89.620718,4.61429179 L88.1952785,4.61429179 C88.043636,4.61429179 87.9526505,4.64546944 87.8919935,4.70782474 C87.8313365,4.77018003 87.7706795,4.86371297 87.740351,5.01960121 L87.4067375,5.89257533 L87.376409,5.89257533 C87.073124,5.36255533 86.6788535,4.95724591 86.163269,4.70782474 C85.678013,4.45840356 85.071443,4.33369297 84.404216,4.33369297 C83.8279745,4.33369297 83.251733,4.42722591 82.7361485,4.61429179 C82.1902355,4.80135768 81.7049795,5.11313415 81.250052,5.54962121 C80.7951245,5.98610827 80.400854,6.57848357 80.0672405,7.29556946 C79.7336269,8.01265535 79.4909989,8.91680712 79.3393564,9.97684712 C79.1877139,11.0680648 79.1877139,11.9722165 79.3090279,12.7204801 C79.4303419,13.437566 79.6729699,14.0299413 80.0065835,14.4664283 C80.340197,14.9029154 80.7344675,15.2146919 81.250052,15.4017577 C81.735308,15.5888236 82.281221,15.6823566 82.8574625,15.6823566 C83.615675,15.6823566 84.343559,15.5264683 84.9804575,15.2146919 C85.617356,14.9029154 86.1935975,14.404073 86.709182,13.7181648 L86.7395105,13.7181648 C86.7395105,14.2481848 86.9214815,14.6534942 87.255095,14.9652707 C87.5887085,15.2770472 88.16495,15.4329354 89.014148,15.4329354 L89.135462,15.4329354 C89.37809,15.4329354 89.5297325,15.3082248 89.5903895,15.027626 L89.7117035,14.1234742 C89.742032,13.8428754 89.6510465,13.7181648 89.37809,13.7181648 L89.3477615,13.7181648 C89.2264475,13.7181648 89.1051335,13.6246319 89.014148,13.437566 C88.9231625,13.2505001 88.892834,12.9387236 88.9838195,12.5022366 L90.0149885,5.0819565 C90.0149885,4.73900238 89.8936745,4.61429179 89.620718,4.61429179 L89.620718,4.61429179 Z M86.8608245,9.97684712 C86.6788535,11.3798412 86.284583,12.4087036 85.73867,13.0322566 C85.1624285,13.6558095 84.4345445,13.967586 83.5246895,13.967586 C83.1607475,13.967586 82.8574625,13.9052307 82.584506,13.8116977 C82.3115495,13.6869871 82.09925,13.4999213 81.9476075,13.1881448 C81.795965,12.8763683 81.7049795,12.4710589 81.674651,11.9722165 C81.6443225,11.4733742 81.674651,10.787466 81.795965,10.0080248 C81.917279,9.22858359 82.038593,8.573853 82.220564,8.07501064 C82.402535,7.57616828 82.584506,7.17085887 82.827134,6.89026004 C83.069762,6.60966122 83.31239,6.39141769 83.615675,6.29788475 C83.91896,6.17317416 84.2525735,6.14199651 84.6165155,6.14199651 C85.5263705,6.14199651 86.163269,6.45377298 86.5575395,7.04614828 C86.95181,7.60734593 87.0427955,8.60503064 86.8608245,9.97684712 L86.8608245,9.97684712 Z M100.963577,4.77018003 L99.9627366,4.77018003 C99.8110941,4.77018003 99.7201086,4.80135768 99.6594516,4.86371297 C99.5987946,4.92606827 99.5381376,5.01960121 99.5078091,5.17548945 L99.1741956,6.04846357 L99.1438671,6.04846357 C98.7799251,5.51844356 98.3249976,5.11313415 97.7790846,4.86371297 C97.202843,4.61429179 96.535616,4.48958121 95.7774035,4.48958121 C95.201162,4.48958121 94.6249205,4.58311415 94.109336,4.77018003 C93.563423,4.95724591 93.078167,5.26902239 92.6232395,5.70550945 C92.168312,6.14199651 91.7740415,6.73437181 91.440428,7.45145769 C91.1068145,8.16854358 90.8641865,9.07269535 90.712544,10.1327354 C90.5609015,11.223953 90.5609015,12.1281048 90.6822155,12.8451907 C90.8035295,13.5622766 91.0461575,14.1546519 91.379771,14.5911389 C91.7133845,15.027626 92.1379835,15.3394025 92.6232395,15.5264683 C93.1084955,15.7135342 93.6544085,15.8070672 94.2609785,15.8070672 C95.1101765,15.8070672 95.807732,15.6511789 96.3233165,15.3394025 C96.838901,15.027626 97.2635,14.6846719 97.566785,14.2793624 L97.5971135,14.2793624 L97.4757995,15.1523366 C97.3544855,16.087666 97.020872,16.8671072 96.5052875,17.4594825 C95.989703,18.0518578 95.3528045,18.3324566 94.6249205,18.3324566 C94.3216355,18.3324566 94.0183505,18.3012789 93.684737,18.2701013 C93.3511235,18.2389236 93.01751,18.1765684 92.714225,18.1453907 C92.41094,18.0830354 92.107655,18.0518578 91.865027,17.9895025 C91.622399,17.9271472 91.4100995,17.8959695 91.2887855,17.8336142 C91.1674715,17.8024366 91.076486,17.7712589 90.9855005,17.7712589 C90.894515,17.7712589 90.8035295,17.8024366 90.773201,17.8647919 L90.3182735,18.737766 C90.227288,18.8936542 90.1969595,18.9871872 90.166631,19.0807201 C90.166631,19.1430754 90.166631,19.2054307 90.2576165,19.2989637 C90.3789305,19.3924966 90.5609015,19.5172072 90.833858,19.6107401 C91.1068145,19.7354507 91.440428,19.8289837 91.8346985,19.9536942 C92.1986405,20.0472272 92.6232395,20.1407601 93.0478385,20.2031154 C93.4724375,20.2654707 93.927365,20.2966484 94.351964,20.2966484 C95.079848,20.2966484 95.747075,20.1719378 96.353645,19.9225166 C96.9905435,19.6730954 97.5364565,19.2989637 98.0217126,18.8312989 C98.5069686,18.3636342 98.9315676,17.8024366 99.2651811,17.1165283 C99.5987946,16.4617978 99.8110941,15.7135342 99.9324081,14.9029154 L101.266862,5.1443118 C101.327519,4.92606827 101.236534,4.77018003 100.963577,4.77018003 L100.963577,4.77018003 Z M98.1733551,10.1327354 C97.9913841,11.5357295 97.5971135,12.5645918 97.020872,13.1569671 C96.4446305,13.7805201 95.7167465,14.0611189 94.83722,14.0611189 C94.473278,14.0611189 94.169993,13.9987636 93.927365,13.9052307 C93.6544085,13.8116977 93.442109,13.5934542 93.2904665,13.3128554 C93.138824,13.0322566 93.01751,12.6269471 92.9871815,12.0969271 C92.956853,11.5980848 92.9871815,10.9121765 93.1084955,10.1015577 C93.2298095,9.32211653 93.3511235,8.66738594 93.5330945,8.16854358 C93.7150655,7.66970123 93.8970365,7.26439181 94.1396645,6.98379299 C94.3822925,6.70319416 94.6249205,6.48495063 94.9282055,6.39141769 C95.2314905,6.2667071 95.565104,6.23552945 95.929046,6.23552945 C96.838901,6.23552945 97.4757995,6.54730592 97.8700701,7.13968122 C98.2643406,7.76323417 98.3856546,8.76091888 98.1733551,10.1327354 L98.1733551,10.1327354 Z M111.881837,7.9814777 C111.82118,7.29556946 111.639209,6.67201651 111.366253,6.17317416 C111.062968,5.6743318 110.638369,5.23784474 110.031799,4.95724591 C109.425229,4.64546944 108.667016,4.48958121 107.696504,4.48958121 C106.725992,4.48958121 105.907123,4.64546944 105.239896,4.95724591 C104.572669,5.26902239 103.996427,5.6743318 103.571828,6.2043518 C103.147229,6.73437181 102.783287,7.32674711 102.570988,8.01265535 C102.32836,8.69856359 102.176717,9.41564947 102.055403,10.1950907 C101.934089,10.9745318 101.934089,11.6916177 101.964418,12.377526 C102.025075,13.0634342 102.207046,13.6558095 102.480002,14.1546519 C102.783287,14.6534942 103.207886,15.0588036 103.814456,15.3705801 C104.421026,15.6823566 105.179239,15.8070672 106.149751,15.8070672 C107.120263,15.8070672 107.939132,15.6511789 108.606359,15.3705801 C109.273586,15.0588036 109.849828,14.6534942 110.274427,14.1546519 C110.699026,13.6558095 111.062968,13.0322566 111.275267,12.3463483 C111.517895,11.6604401 111.669538,10.9433542 111.790852,10.163913 C111.912166,9.41564947 111.942494,8.69856359 111.881837,7.9814777 L111.881837,7.9814777 Z M109.3949,10.163913 C109.334243,10.693933 109.212929,11.1927754 109.091615,11.6292624 C108.970301,12.0969271 108.78833,12.4710589 108.545702,12.814013 C108.303074,13.1569671 108.030118,13.437566 107.666176,13.6246319 C107.302234,13.8116977 106.877635,13.9364083 106.392379,13.9364083 C105.876794,13.9364083 105.482524,13.8428754 105.179239,13.6246319 C104.875954,13.437566 104.663654,13.1569671 104.54234,12.814013 C104.421026,12.4710589 104.330041,12.0657495 104.330041,11.6292624 C104.330041,11.1615977 104.360369,10.693933 104.421026,10.163913 C104.481683,9.66507065 104.602997,9.16622829 104.724311,8.69856359 C104.845625,8.23089888 105.027596,7.82558946 105.270224,7.48263534 C105.512852,7.13968122 105.785809,6.8590824 106.119422,6.67201651 C106.453036,6.48495063 106.877635,6.36024004 107.393219,6.36024004 C107.878475,6.36024004 108.303074,6.45377298 108.576031,6.67201651 C108.879316,6.8590824 109.091615,7.13968122 109.212929,7.48263534 C109.334243,7.82558946 109.425229,8.23089888 109.425229,8.69856359 C109.485886,9.16622829 109.455557,9.66507065 109.3949,10.163913 L109.3949,10.163913 Z" id="Shape" fill="#254895"></path>
                    </g>
                    <g id="Group">
                        <path d="M20.3294927,5.20813701 C19.7143794,4.59541501 18.7301982,4.59541501 18.1458407,5.20813701 L18.0535737,5.30004531 L17.1924151,6.15785611 L9.87256755,13.4186118 L8.3655401,14.9197807 C7.78118252,15.5018666 7.01229097,15.8082276 6.18188809,15.8082276 C5.35148521,15.8082276 4.58259366,15.5018666 3.99823608,14.9197807 C3.4138785,14.3376948 3.10632188,13.5717923 3.10632188,12.7446176 C3.10632188,11.9174429 3.4138785,11.1515404 3.99823608,10.5694545 L13.3479574,1.2560801 C12.1484865,0.0612722001 10.2108798,0.0612722001 8.98065335,1.225444 L1.87609539,8.30238311 C-0.553601919,10.722635 -0.553601919,14.6134197 1.87609539,17.0336716 C4.3057927,19.4539235 8.21176179,19.4539235 10.6414591,17.0336716 L20.3294927,7.38330011 C20.9446059,6.77057811 20.9446059,5.79022291 20.3294927,5.20813701 L20.3294927,5.20813701 Z" id="Shape" fill="#00AAEF"></path>
                        <path d="M23.4050589,2.0219826 C20.9753616,-0.3982693 17.0693925,-0.3982693 14.6396952,2.0219826 L4.95166161,11.6723541 C4.33654836,12.2850761 4.33654836,13.2654313 4.95166161,13.8475172 C5.56677485,14.4602392 6.55095604,14.4602392 7.13531362,13.8475172 L7.2275806,13.7556089 L8.08873914,12.8977981 L15.3778311,5.63704241 L16.7925915,4.22778181 L16.8848585,4.1358735 C17.4692161,3.5537876 18.2381077,3.2474266 19.0685105,3.2474266 C19.8989134,3.2474266 20.667805,3.5537876 21.2521625,4.1358735 C21.8365201,4.71795941 22.1440767,5.48386191 22.1440767,6.31103661 C22.1440767,7.13821131 21.8365201,7.90411381 21.2521625,8.48619971 L11.9331969,17.7995741 C13.1326677,18.994382 15.0702745,18.994382 16.3005009,17.8302102 L16.3005009,17.8302102 L23.3743032,10.7839072 C25.8040005,8.33301921 25.8040005,4.44223451 23.4050589,2.0219826 L23.4050589,2.0219826 Z" id="Shape" fill="#254895"></path>
                    </g>
                </g>
            </g>
        </g>
    </g>
</svg>