<?xml version="1.0" encoding="UTF-8" standalone="no"?>
<svg width="87px" height="87px" viewBox="0 0 87 87" version="1.1" xmlns="http://www.w3.org/2000/svg" xmlns:xlink="http://www.w3.org/1999/xlink">
    <!-- Generator: Sketch 3.6 (26304) - http://www.bohemiancoding.com/sketch -->
    <title>icon-general</title>
    <desc>Created with Sketch.</desc>
    <defs></defs>
    <g id="Page-1" stroke="none" stroke-width="1" fill="none" fill-rule="evenodd">
        <g id="Landing" transform="translate(-1356.000000, -839.000000)">
            <g id="icon-general" transform="translate(1356.000000, 839.000000)">
                <circle id="Oval-9" fill="#FFFFFF" cx="43.5" cy="43.5" r="43.5"></circle>
                <g id="Group-7" transform="translate(16.000000, 24.000000)" stroke-dasharray="5,1">
                    <path d="M38.6642474,11.0507028 L38.4676495,11.2457152 L36.6327361,13.0658309 L21.0359719,28.4718106 L17.8248734,31.6570132 C16.5797535,32.8920917 14.941438,33.5421331 13.1720572,33.5421331 C11.4026764,33.5421331 9.76436079,32.8920917 8.51924095,31.6570132 C7.27412112,30.4219346 6.61879489,28.7968313 6.61879489,27.0417197 C6.61879489,25.2866081 7.27412112,23.6615047 8.51924095,22.4264262 L28.4411583,2.66516949 C25.885386,0.130008268 21.7568307,0.130008268 19.1355258,2.60016535 L3.99748999,17.6161203 C-1.17958721,22.7514468 -1.17958721,31.0069718 3.99748999,36.1422984 C9.17456718,41.277625 17.4972103,41.277625 22.6742875,36.1422984 L43.3170636,15.6659963 C44.6277161,14.3659136 44.6277161,12.2857813 43.3170636,11.0507028 C42.0064112,9.75062007 39.9093672,9.75062007 38.6642474,11.0507028 Z" id="Shape" stroke="#00AAEF"></path>
                    <path d="M49.8703259,4.29027283 C44.6932487,-0.84505374 36.3706056,-0.84505374 31.1935284,4.29027283 L10.5507523,24.766575 C9.2400998,26.0666577 9.2400998,28.1467899 10.5507523,29.3818685 C11.8614047,30.6819512 13.9584486,30.6819512 15.2035685,29.3818685 L15.4001663,29.1868561 L17.2350798,27.3667403 L32.7663114,11.9607606 L35.780812,8.97057047 L35.9774099,8.77555807 C37.2225297,7.54047952 38.8608453,6.89043819 40.6302261,6.89043819 C42.3996069,6.89043819 44.0379225,7.54047952 45.2830423,8.77555807 C46.5281621,10.0106366 47.1834884,11.63574 47.1834884,13.3908516 C47.1834884,15.1459632 46.5281621,16.7710665 45.2830423,18.0061451 L25.4266576,37.7674018 C27.9824299,40.302563 32.1109851,40.302563 34.73229,37.8324059 L34.73229,37.8324059 L49.8047933,22.8814551 C54.9818705,17.6811244 54.9818705,9.4255994 49.8703259,4.29027283 L49.8703259,4.29027283 Z" id="Shape" stroke="#254895"></path>
                </g>
            </g>
        </g>
    </g>
</svg>