<?xml version="1.0" encoding="UTF-8" standalone="no"?>
<svg width="87px" height="87px" viewBox="0 0 87 87" version="1.1" xmlns="http://www.w3.org/2000/svg" xmlns:xlink="http://www.w3.org/1999/xlink">
    <!-- Generator: Sketch 3.6.1 (26313) - http://www.bohemiancoding.com/sketch -->
    <title>opencart</title>
    <desc>Created with Sketch.</desc>
    <defs></defs>
    <g id="V2" stroke="none" stroke-width="1" fill="none" fill-rule="evenodd">
        <g id="Lobby" transform="translate(-624.000000, -705.000000)">
            <g id="Group-5-Copy-3" transform="translate(536.000000, 675.000000)">
                <g id="opencart" transform="translate(88.000000, 30.000000)">
                    <circle id="Oval-9" fill="#FFFFFF" cx="43.5" cy="43.5" r="43.5"></circle>
                    <g id="Group-18" transform="translate(10.000000, 20.000000)" fill="#30BCED">
                        <path d="M0,0 C3.57661538,5.37107692 5.53353846,15.4461538 38.6313846,14.9452308 L38.6313846,14.9452308 C73.1655385,14.4135385 52.0984615,23.8498462 45.9692308,34.5095385 L45.9692308,34.5095385 C65.3046154,17.2504615 79.0670769,10.2830769 47.7612308,10.2830769 L47.7612308,10.2830769 C16.4467692,10.2830769 8.50215385,8.94523077 0,0 L0,0 Z" id="Fill-1"></path>
                        <path d="M13.5384615,42.8923077 C13.5384615,45.5015385 15.6566154,47.6196923 18.2756923,47.6196923 L18.2756923,47.6196923 C20.8873846,47.6196923 23.0043077,45.5015385 23.0043077,42.8923077 L23.0043077,42.8923077 C23.0043077,40.272 20.8873846,38.1538462 18.2756923,38.1538462 L18.2756923,38.1538462 C15.6566154,38.1538462 13.5384615,40.272 13.5384615,42.8923077" id="Fill-3"></path>
                        <path d="M34.4615385,42.8923077 C34.4615385,45.5015385 36.5833846,47.6196923 39.2,47.6196923 L39.2,47.6196923 C41.8116923,47.6196923 43.9273846,45.5015385 43.9273846,42.8923077 L43.9273846,42.8923077 C43.9273846,40.272 41.8116923,38.1538462 39.2,38.1538462 L39.2,38.1538462 C36.5833846,38.1538462 34.4615385,40.272 34.4615385,42.8923077" id="Fill-5"></path>
                    </g>
                </g>
            </g>
        </g>
    </g>
</svg>