<?xml version="1.0" encoding="UTF-8" standalone="no"?>
<svg width="87px" height="87px" viewBox="0 0 87 87" version="1.1" xmlns="http://www.w3.org/2000/svg" xmlns:xlink="http://www.w3.org/1999/xlink">
    <!-- Generator: Sketch 3.6.1 (26313) - http://www.bohemiancoding.com/sketch -->
    <title>prestashop</title>
    <desc>Created with Sketch.</desc>
    <defs></defs>
    <g id="V2" stroke="none" stroke-width="1" fill="none" fill-rule="evenodd">
        <g id="Lobby" transform="translate(-916.000000, -705.000000)">
            <g id="Group-13" transform="translate(828.000000, 675.000000)">
                <g id="prestashop" transform="translate(88.000000, 30.000000)">
                    <circle id="Oval-9" fill="#FFFFFF" cx="43.5" cy="43.5" r="43.5"></circle>
                    <g id="Group" transform="translate(14.000000, 14.000000)">
                        <path d="M19.4482031,46.035 C19.9272656,45.8217188 20.4126562,45.6255469 20.9025,45.4415625 C21.455625,45.2336719 22.0132031,45.0382031 22.5782812,44.8680469 C23.2816406,44.6561719 23.9908594,44.4644531 24.7096875,44.311875 C25.6788281,44.1060937 26.6594531,43.95375 27.6473438,43.8578906 C27.0932813,45.6 26.4808594,47.3322656 25.8173437,49.0535156 C25.8457031,49.3867969 25.8609375,49.7221875 25.8698438,50.0585156 C27.20625,49.7948437 28.58625,49.65375 30,49.65375 C31.4135156,49.65375 32.79375,49.7948437 34.1301563,50.0585156 C34.1390625,49.7221875 34.1542969,49.3867969 34.1826563,49.0535156 C33.5189063,47.3322656 32.9067187,45.6 32.3526563,43.8578906 C33.3405469,43.95375 34.3211719,44.1060937 35.2903125,44.311875 C36.0089063,44.4644531 36.718125,44.6561719 37.4214844,44.8680469 C37.9867969,45.0382031 38.544375,45.2336719 39.0975,45.4415625 C39.5875781,45.6257812 40.0732031,45.8219531 40.5522656,46.0352344 C43.9516406,47.5490625 47.0505469,49.794375 49.5921094,52.708125 C55.9624219,47.2071094 60,39.0775781 60,30 C60,13.4315625 46.5684375,0 30,0 C13.4315625,0 0,13.4315625 0,30 C0,39.0775781 4.03757813,47.206875 10.4078906,52.708125 C12.9494531,49.794375 16.0488281,47.5488281 19.4482031,46.035" id="Shape" fill="#A5DBE8"></path>
                        <path d="M40.5522656,46.0352344 L42.4146094,52.4390625 L42.9428906,52.4639063 C43.2857812,52.4639063 43.5269531,52.5541406 43.5269531,52.8970313 C43.5269531,53.4670313 43.5564844,54.1075781 43.6110937,54.6667969 C44.0751562,55.0607813 44.6402344,55.5051563 45.0686719,55.936875 C46.678125,54.9998438 48.1910156,53.9179688 49.5921094,52.708125 C47.0505469,49.794375 43.9516406,47.5490625 40.5522656,46.0352344" id="Shape" fill="#525353"></path>
                        <path d="M36.9107813,45.97125 L39.0975,45.4415625 C38.544375,45.2336719 37.9867969,45.0382031 37.4214844,44.8680469 C36.718125,44.6561719 36.0089063,44.4644531 35.2903125,44.311875 C34.3211719,44.1060937 33.3405469,43.95375 32.3526563,43.8578906 C32.9067188,45.6 33.5189063,47.3322656 34.1826563,49.0535156 C34.1542969,49.3867969 34.1390625,49.7221875 34.1301563,50.0585156 C35.6796094,50.3641406 37.2030469,50.8952344 38.6116406,51.5182031 L36.9107813,45.97125" id="Shape" fill="#525353"></path>
                        <path d="M14.9313281,55.936875 C15.2796094,56.1398438 15.6314062,56.3378906 15.9890625,56.5270313 C16.1142187,55.9258594 16.314375,55.0928906 16.3748437,54.474375 C15.9107812,54.8683594 15.3597656,55.5051563 14.9313281,55.936875" id="Shape" fill="#000000"></path>
                        <path d="M38.5750781,51.4628906 C37.1667187,50.8399219 35.6796094,50.3641406 34.1301562,50.0585156 C32.79375,49.7948437 31.4135156,49.65375 30,49.65375 C28.58625,49.65375 27.20625,49.7948437 25.8698437,50.0585156 C24.320625,50.3639062 22.7041406,50.8272656 21.2960156,51.45 L21.14625,52.3830469 L38.8542187,52.3830469 L38.5750781,51.4628906" id="Shape" fill="#000000"></path>
                        <path d="M16.32,54.6520312 C16.3748437,54.0928125 16.4144531,53.5942969 16.4144531,53.0240625 C16.4144531,52.6814062 16.6495312,52.4617969 16.9924219,52.4617969 L17.5546875,52.4421094 L19.4482031,46.035 C16.0488281,47.5488281 12.9494531,49.794375 10.4078906,52.708125 C11.8089844,53.9179687 13.321875,54.9998437 14.9313281,55.936875 C15.3597656,55.5051562 15.8060156,55.0910156 16.2700781,54.6970312" id="Shape" fill="#525353"></path>
                        <path d="M43.8400781,55.7917969 C43.9614844,56.4011719 43.9889062,56.5225781 44.0109375,56.5270312 C44.3685937,56.3378906 44.7201562,56.1398437 45.0686719,55.936875 C44.6402344,55.5051562 44.1801562,55.0771875 43.7158594,54.6832031 L43.8400781,55.7917969" id="Shape" fill="#000000"></path>
                        <path d="M38.5750781,51.4628906 L38.8542188,52.3830469 L42.47625,52.3830469 L40.5522656,46.0352344 C40.0732031,45.8219531 39.5875781,45.6257813 39.0975,45.4415625 L36.9107813,45.97125 L38.5750781,51.4628906" id="Shape" fill="#AA9678"></path>
                        <path id="Shape" fill="#C4B6A1" d="M17.5872656,53.7967656 C17.6682656,53.7397656 17.7502656,53.6827656 17.8302656,53.6247656 L17.5982656,53.6247656 C17.5962656,53.6817656 17.5902656,53.7397656 17.5872656,53.7967656"></path>
                        <path id="Shape" fill="#AA9678" d="M42.5885469,53.6247656 L42.3555469,53.6247656 C42.4365469,53.6827656 42.5185469,53.7397656 42.5985469,53.7967656 C42.5965469,53.7397656 42.5905469,53.6817656 42.5885469,53.6247656"></path>
                        <path d="M42.3478125,53.5321875 L29.9742187,53.54625 L30,60 C34.605,60 38.96625,58.9596094 42.8655469,57.1052344 C42.6110156,55.9867969 42.5854687,54.7821094 42.5439844,53.6097656 C42.5252344,53.5961719 42.3478125,53.5321875 42.3478125,53.5321875" id="Shape" fill="#AA9678"></path>
                        <path d="M29.9800781,53.5729687 C29.9800781,53.5729687 17.5382812,53.5572656 17.5192969,53.570625 C17.4780469,54.7432031 17.2361719,56.1344531 17.1344531,57.1052344 C21.03375,58.9596094 25.395,60 30,60 L30.0070312,53.5938281 L29.9800781,53.5729687" id="Shape" fill="#C4B6A1"></path>
                        <path id="Shape" fill="#786453" d="M30,53.0039062 L30.001,53.0039062 L30.001,53.6247656 L30,53.6247656 L30,53.0039062 L30,53.0039062 Z"></path>
                        <path d="M38.8090625,48.26 C38.6478261,48.1079452 38.4815771,47.945274 38.3090625,47.76 C38.4819948,47.945274 38.6478261,48.1079452 38.8090625,48.26" id="Shape" fill="#525353"></path>
                        <path d="M39.2798437,48.7875 C39.2798437,48.7875 39.2819531,48.7942969 39.2861719,48.8069531 C39.2819531,48.7942969 39.2798437,48.7875 39.2798437,48.7875 C39.2798437,48.7875 38.975625,48.5463281 38.5896094,48.1021875 C38.975625,48.5463281 39.2798437,48.7875 39.2798437,48.7875" id="Shape" fill="#AA9678"></path>
                        <path id="Shape" fill="#FFFFFF" d="M48.4232812,21.6440625 L48.4232812,21.6500625 L48.4232812,21.6440625"></path>
                        <path id="Shape" fill="#FFFFFF" d="M49.6539844,30.3105781 C49.6539844,30.2975781 49.6549844,30.2855781 49.6549844,30.2725781 C49.6549844,30.2855781 49.6539844,30.2975781 49.6539844,30.3105781"></path>
                        <path id="Shape" fill="#BBBCBD" d="M49.6549844,30.299375 C49.6549844,30.287375 49.6539844,30.277375 49.6539844,30.264375 C49.6539844,30.276375 49.6549844,30.287375 49.6549844,30.299375"></path>
                        <path d="M49.6204688,29.8052344 C49.6214063,29.8132031 49.62375,29.8202344 49.6246875,29.8282031 C49.6253906,29.833125 49.6267969,29.8375781 49.6275,29.8422656 L49.6275,29.8441406 C49.6417969,29.95875 49.6471875,30.0785156 49.6497656,30.1992187 C49.6502344,30.2214844 49.6539844,30.2423437 49.6539844,30.264375 C49.6539844,30.2674219 49.6542188,30.2697656 49.6542188,30.2725781 C49.6542188,30.275625 49.6539844,30.2784375 49.6539844,30.2814844 C49.65375,30.3053906 49.6497656,30.3276562 49.6495313,30.3513281 C49.6467188,30.4696875 49.6415625,30.5871094 49.6277344,30.6996094 L49.6277344,30.70125 C49.6267969,30.7071094 49.6253906,30.7125 49.6244531,30.7183594 C49.6235156,30.7275 49.6207031,30.7357031 49.6195313,30.7446094 C49.6026563,30.8674219 49.5810938,30.9864844 49.5522656,31.0996875 C49.5520313,31.1003906 49.5520313,31.1008594 49.5517969,31.1013281 L49.5517969,31.1015625 L49.5560156,31.096875 C49.5564844,31.095 49.5571875,31.0933594 49.5576563,31.0914844 L49.5576563,31.0917187 L50.3428125,30.2697656 L49.5513281,29.44125 C49.5513281,29.4417187 49.5513281,29.4424219 49.5515625,29.4428906 C49.5810938,29.5584375 49.6035938,29.6798437 49.6204688,29.8052344" id="Shape" fill="#676A6A"></path>
                        <path d="M49.6195312,30.7446094 C49.6216406,30.7291406 49.625625,30.7153125 49.6277344,30.6996094 C49.6415625,30.5871094 49.6467187,30.4696875 49.6495312,30.3513281 C49.6497656,30.3246094 49.6539844,30.2995313 49.6539844,30.2725781 C49.6539844,30.2475 49.6502344,30.2240625 49.6497656,30.1992188 C49.6471875,30.0785156 49.6417969,29.95875 49.6275,29.8441406 C49.625625,29.8305469 49.6221094,29.8185938 49.6204687,29.8052344 C49.6035937,29.6798438 49.5810937,29.5584375 49.5515625,29.4428906 C49.54125,29.4025781 49.5269531,29.3667188 49.515,29.3278125 C49.4439844,29.0929688 49.3471875,28.8855469 49.2323437,28.7132813 C49.216875,28.6903125 49.2011719,28.6680469 49.1852344,28.6464844 C49.1535937,28.6040625 49.1219531,28.5628125 49.0884375,28.5257813 C49.03875,28.4721094 48.9874219,28.4226563 48.9332812,28.3816406 C48.9126562,28.3659375 48.8908594,28.3549219 48.8697656,28.3413281 C48.8228906,28.3110938 48.7750781,28.2846094 48.725625,28.2644531 C48.7045312,28.2560156 48.6832031,28.2475781 48.6616406,28.2407813 C48.5917969,28.2192188 48.5203125,28.20375 48.4467187,28.20375 C48.373125,28.20375 48.301875,28.2192188 48.2317969,28.2407813 C48.2102344,28.2475781 48.1889062,28.2560156 48.1678125,28.2646875 C48.1183594,28.2846094 48.0705469,28.3110938 48.0234375,28.3413281 C48.0028125,28.3549219 47.9807812,28.3657031 47.9603906,28.3814063 C47.90625,28.4226563 47.8546875,28.4721094 47.805,28.5257813 C47.7714844,28.5628125 47.7398437,28.6040625 47.7086719,28.6460156 C47.6922656,28.6680469 47.6765625,28.6903125 47.6610937,28.7135156 C47.54625,28.8857813 47.4492187,29.0932031 47.3784375,29.3280469 C47.375625,29.3374219 47.3723437,29.3465625 47.3695312,29.3561719 C47.338125,29.4639844 47.31375,29.5774219 47.2933594,29.6939063 C47.2872656,29.7295313 47.2790625,29.76375 47.2741406,29.8003125 C47.2553906,29.930625 47.2457812,30.0665625 47.2434375,30.2057813 C47.2432031,30.225 47.2401562,30.2432813 47.2401562,30.2625 L47.2448437,30.2625 C47.2448437,31.4053125 47.7855469,32.3315625 48.4523437,32.3315625 C48.5671875,32.3315625 48.6775781,32.3015625 48.7828125,32.2502344 C48.7996875,32.2417969 48.8163281,32.233125 48.8329687,32.2235156 C48.8765625,32.1984375 48.9194531,32.1710156 48.9604687,32.1379688 C48.9832031,32.1196875 49.0045312,32.0976563 49.0263281,32.0770313 C49.0795312,32.0273438 49.1301562,31.9710938 49.1782031,31.9085156 C49.2114844,31.8646875 49.2442969,31.8208594 49.2747656,31.771875 C49.2942187,31.7407031 49.3120312,31.7069531 49.3300781,31.6736719 C49.3638281,31.6113281 49.3957031,31.5464063 49.4245312,31.4775 C49.4353125,31.4526563 49.4463281,31.4285156 49.4561719,31.4029688 C49.4929687,31.3071094 49.5250781,31.2058594 49.5522656,31.0996875 C49.5810937,30.9864844 49.6026562,30.8674219 49.6195312,30.7446094 L49.6195312,30.7446094 L49.6195312,30.7446094 Z M48.4900781,29.9971875 C48.24,29.9971875 48.0372656,29.6496094 48.0372656,29.2211719 C48.0372656,28.7929688 48.24,28.4453906 48.4900781,28.4453906 C48.7401563,28.4453906 48.9426563,28.7929688 48.9426563,29.2211719 C48.9426563,29.6496094 48.7401563,29.9971875 48.4900781,29.9971875 L48.4900781,29.9971875 L48.4900781,29.9971875 Z" id="Shape" fill="#000000"></path>
                        <path d="M48.4900781,28.4453906 C48.24,28.4453906 48.0372656,28.7929688 48.0372656,29.2211719 C48.0372656,29.6496094 48.24,29.9971875 48.4900781,29.9971875 C48.7401563,29.9971875 48.9426563,29.6496094 48.9426563,29.2211719 C48.9426563,28.7929688 48.7401563,28.4453906 48.4900781,28.4453906" id="Shape" fill="#FFFFFF"></path>
                        <path d="M47.3784375,29.3280469 L47.3784375,29.3280469 C47.4492187,29.0932031 47.54625,28.8857812 47.6610937,28.7135156 C47.6765625,28.6900781 47.6922656,28.6682812 47.7086719,28.6460156 C47.7398437,28.6040625 47.7714844,28.5628125 47.805,28.5257812 C47.8546875,28.4716406 47.90625,28.4228906 47.9603906,28.3814062 C47.9807812,28.3657031 48.0028125,28.3549219 48.0234375,28.3413281 C48.0703125,28.310625 48.1183594,28.2850781 48.1678125,28.2646875 C48.1889062,28.2560156 48.2102344,28.2475781 48.2317969,28.2407812 C48.3016406,28.21875 48.373125,28.20375 48.4467187,28.20375 C48.5203125,28.20375 48.5917969,28.21875 48.6616406,28.2407812 C48.6832031,28.2475781 48.7045312,28.2560156 48.725625,28.2644531 C48.7750781,28.2850781 48.8228906,28.310625 48.8697656,28.3413281 C48.8908594,28.3549219 48.9126562,28.3659375 48.9332812,28.3816406 C48.9871875,28.4228906 49.03875,28.4716406 49.0884375,28.5257812 C49.1219531,28.5628125 49.1535937,28.6040625 49.1852344,28.6464844 C49.2011719,28.6682812 49.216875,28.6900781 49.2323437,28.7132812 C49.3471875,28.8855469 49.4439844,29.0929687 49.515,29.3278125 L49.515,29.3282812 L48.4467187,24.4352344 L47.3782031,29.3280469 L47.3784375,29.3280469" id="Shape" fill="#909393"></path>
                        <path d="M34.2888281,30.226875 C34.2874219,30.1284375 34.2810937,30.0311719 34.2700781,29.9355469 C34.2698437,29.934375 34.269375,29.9329687 34.269375,29.9315625 C34.258125,29.8373437 34.2424219,29.7442969 34.2222656,29.653125 C34.2215625,29.6507812 34.2208594,29.6486719 34.2203906,29.6460937 C34.2002344,29.5558594 34.175625,29.4672656 34.1470312,29.3803125 C34.1463281,29.3784375 34.1453906,29.3765625 34.1446875,29.3744531 C34.1158594,29.2875 34.0830469,29.2024219 34.0457812,29.1194531 C34.0453125,29.1178125 34.0441406,29.1161719 34.0434375,29.1142969 C34.0061719,29.0310937 33.9649219,28.9497656 33.9199219,28.8710156 C33.7825781,28.6303125 33.61125,28.4121094 33.4120312,28.2222656 C33.1591406,27.9815625 32.8617187,27.7867969 32.5338281,27.6517969 C32.53125,27.6508594 32.5282031,27.6499219 32.525625,27.64875 C32.3639062,27.5828906 32.1949219,27.5313281 32.0198437,27.4961719 C32.0153906,27.4954687 32.0111719,27.4952344 32.0067187,27.4942969 C31.8311719,27.4598437 31.6502344,27.4410937 31.4646094,27.4410937 C31.2820312,27.4410937 31.1046094,27.4598437 30.931875,27.4928906 C30.9257812,27.4940625 30.9196875,27.4945312 30.9135937,27.4957031 C30.7417969,27.5299219 30.5760937,27.5800781 30.4169531,27.6438281 C30.4129687,27.6454687 30.4085156,27.646875 30.4042969,27.64875 C30.2430469,27.714375 30.0890625,27.7942969 29.9444531,27.8873437 C29.94375,27.8878125 29.9432812,27.8880469 29.9428125,27.8880469 C29.7967969,27.9822656 29.6596875,28.089375 29.5335937,28.2077344 L29.5305469,28.2173437 L29.52,28.2196875 C29.3186719,28.4111719 29.1454687,28.6319531 29.0069531,28.8745312 C29.0055469,28.8773437 29.0036719,28.8801562 29.0017969,28.8832031 C28.9596094,28.9575 28.9214062,29.0348437 28.88625,29.1135937 C28.8825,29.1220312 28.8778125,29.13 28.8742969,29.1384375 C28.8421875,29.2113281 28.8145312,29.2867969 28.78875,29.3627344 C28.7838281,29.3777344 28.7772656,29.3917969 28.7725781,29.4065625 C28.7500781,29.4775781 28.7317969,29.5504687 28.7144531,29.6233594 C28.71,29.6444531 28.7032031,29.6646094 28.69875,29.6854687 C28.68375,29.7576562 28.6734375,29.8314844 28.6638281,29.9055469 C28.6610156,29.9282812 28.6560937,29.9500781 28.65375,29.9728125 C28.6436719,30.0696094 28.6380469,30.1678125 28.6380469,30.2676562 C28.6380469,30.4546875 28.6572656,30.6370312 28.6921875,30.81375 C28.6926562,30.8172656 28.6928906,30.82125 28.6938281,30.825 C28.7292187,31.0014844 28.78125,31.1716406 28.8480469,31.3345312 C28.8489844,31.336875 28.8494531,31.3392187 28.850625,31.3413281 C28.9865625,31.6708594 29.1832031,31.9692187 29.42625,32.2225781 C29.6184375,32.4229687 29.8396875,32.5947656 30.0829687,32.7321094 C30.0841406,32.7328125 30.0853125,32.7335156 30.0864844,32.7342187 C30.1624219,32.776875 30.2409375,32.8153125 30.3208594,32.8509375 C30.3274219,32.85375 30.33375,32.8575 30.3405469,32.8603125 C30.4146094,32.8926562 30.49125,32.9205469 30.5683594,32.9465625 C30.5814844,32.9510156 30.5941406,32.9566406 30.6072656,32.9608594 C30.6785156,32.9835937 30.7521094,33.001875 30.8257031,33.01875 C30.845625,33.0234375 30.8648437,33.03 30.885,33.0342187 C30.9564844,33.0489844 31.0300781,33.0590625 31.1041406,33.0686719 C31.1264062,33.07125 31.1484375,33.0764062 31.1711719,33.07875 C31.2675,33.0888281 31.3654687,33.0942187 31.4646094,33.0942187 C31.8548437,33.0942187 32.2265625,33.015 32.5647656,32.8717969 C32.73375,32.8005469 32.8945312,32.713125 33.0447656,32.6114062 C33.3457031,32.4082031 33.6051562,32.1485156 33.8083594,31.8480469 C33.9098437,31.6975781 33.9975,31.5370312 34.0689844,31.3678125 C34.2119531,31.0296094 34.2911719,30.6578906 34.2911719,30.2676562 C34.2911719,30.2608594 34.2902344,30.2545312 34.2902344,30.2482031 C34.29,30.2409375 34.2890625,30.2341406 34.2888281,30.226875 L34.2888281,30.226875 L34.2888281,30.226875 Z M31.4646094,29.8957031 C30.8782031,29.8957031 30.4028906,29.4201562 30.4028906,28.83375 C30.4028906,28.2473437 30.8782031,27.7720312 31.4646094,27.7720312 C32.0510156,27.7720312 32.5263281,28.2473437 32.5263281,28.83375 C32.5263281,29.4201562 32.0510156,29.8957031 31.4646094,29.8957031 L31.4646094,29.8957031 L31.4646094,29.8957031 Z" id="Shape" fill="#000000"></path>
                        <path d="M31.4646094,27.7720313 C30.8782031,27.7720313 30.4028906,28.2473438 30.4028906,28.83375 C30.4028906,29.4201563 30.8782031,29.8957031 31.4646094,29.8957031 C32.0510156,29.8957031 32.5263281,29.4201563 32.5263281,28.83375 C32.5263281,28.2473438 32.0510156,27.7720313 31.4646094,27.7720313" id="Shape" fill="#FFFFFF"></path>
                        <path d="M29.52,28.2196875 L29.52,28.2196875 L29.5305469,28.2173438 L29.5335937,28.2077344 L31.4803125,22.2541406 L31.4803125,20.8607813 C31.4803125,20.8504688 31.4800781,20.8450781 31.4800781,20.8450781 C30.3958594,20.6226563 29.2811719,20.5005469 28.1402344,20.5005469 C27.759375,20.5005469 27.3815625,20.5167188 27.0060937,20.5422656 C26.9514844,20.5460156 26.8966406,20.5492969 26.8417969,20.5535156 C24.8878125,20.701875 22.9635937,21.2111719 21.181875,22.0244531 C19.6539844,22.7221875 18.234375,23.6411719 16.9582031,24.7307813 L16.9582031,24.7310156 C16.9577344,24.7317188 16.9567969,24.7321875 16.9560937,24.7328906 C16.6134375,25.0239844 16.2850781,25.33125 15.9644531,25.64625 C15.9044531,25.7048438 15.8435156,25.7629688 15.7842187,25.8225 C15.4823437,26.1267188 15.1905469,26.4410156 14.9083594,26.7644531 C14.8471875,26.835 14.7869531,26.9069531 14.7264844,26.9782031 C14.443125,27.3126563 14.1675,27.6534375 13.9057031,28.0054688 C13.8839062,28.035 13.8635156,28.0659375 13.8419531,28.0954688 C13.5923437,28.4350781 13.3546875,28.7835938 13.1257031,29.1379688 C13.0809375,29.2071094 13.035,29.2753125 12.9911719,29.3451563 C12.8060156,29.6388281 12.63375,29.9404688 12.4626562,30.2428125 L21.3307031,30.2428125 L29.52,28.2196875" id="Shape" fill="#BBBCBD"></path>
                        <path d="M37.0066406,27.5498437 C37.0246875,27.3175781 37.0394531,27.0855469 37.0514062,26.8530469 C37.0675781,26.5385156 37.0785937,26.2235156 37.0846875,25.90875 C37.089375,25.6642969 37.0886719,25.4196094 37.0875,25.1751562 C37.0875,25.1046094 37.0891406,25.0340625 37.0884375,24.9632812 C37.081875,24.3332812 37.0572656,23.7025781 37.0188281,23.0711719 C37.0169531,23.07 37.0153125,23.0688281 37.0134375,23.0676562 C37.0127344,23.0660156 37.0117969,23.0646094 37.0110937,23.0632031 C37.00875,23.0615625 36.9996094,23.0564062 36.9911719,23.0517187 C36.9836719,23.0472656 36.9771094,23.0435156 36.9630469,23.0355469 C36.8472656,22.9689844 36.5627344,22.8060937 36.3072656,22.6610156 C36.3016406,22.6579687 36.29625,22.6546875 36.2908594,22.6516406 C36.2261719,22.6150781 36.1638281,22.5796875 36.1073437,22.5478125 C36.1061719,22.5471094 36.105,22.5466406 36.1040625,22.5459375 C36.0553125,22.5185156 36.0145312,22.4957812 35.9767969,22.4746875 C35.9692969,22.4704687 35.95875,22.4646094 35.9517187,22.460625 C35.9102344,22.4376562 35.878125,22.4203125 35.8591406,22.4102344 C35.4515625,22.1988281 35.0355469,22.003125 34.6125,21.8245312 C33.6039844,21.3986719 32.2455469,21.0253125 31.4803125,20.8450781 L31.4803125,22.2541406 L33.4099219,28.2173437 L33.4120312,28.2222656 C33.61125,28.4121094 33.7825781,28.6303125 33.9199219,28.8707812 L33.9199219,28.8710156 C33.9649219,28.9497656 34.0061719,29.0310937 34.0434375,29.1142969 C34.044375,29.1161719 34.0453125,29.1178125 34.0457812,29.1194531 C34.0830469,29.2024219 34.1158594,29.2875 34.1446875,29.3744531 C34.1453906,29.3765625 34.1463281,29.3784375 34.1470312,29.3803125 C34.175625,29.4672656 34.2002344,29.5558594 34.2203906,29.6460937 C34.2208594,29.6486719 34.2215625,29.6507812 34.2222656,29.653125 C34.2424219,29.7442969 34.258125,29.8373437 34.269375,29.9315625 C34.269375,29.9329687 34.2698437,29.934375 34.2700781,29.9355469 C34.2810937,30.0311719 34.2874219,30.1284375 34.2888281,30.226875 L34.2960937,30.2428125 L36.6588281,30.2428125 C36.8184375,29.3782031 36.9297656,28.5021094 37.0003125,27.6222656 C37.0019531,27.598125 37.0047656,27.5739844 37.0066406,27.5498437" id="Shape" fill="#E3DDDB"></path>
                        <path id="Shape" fill="#FCB03F" d="M40.1104219,25.4414062 C40.1034219,25.4524063 40.0984219,25.4654063 40.0924219,25.4764062 C40.0984219,25.4654063 40.1044219,25.4534063 40.1104219,25.4424063"></path>
                        <path d="M29.5335938,28.2077344 L29.5335938,28.2077344 C29.6596875,28.089375 29.7967969,27.9822656 29.9428125,27.8880469 C29.9432813,27.8880469 29.94375,27.8878125 29.9444531,27.8873437 C30.0890625,27.7942969 30.2430469,27.714375 30.4042969,27.64875 C30.4085156,27.646875 30.4129688,27.6457031 30.4169531,27.6438281 C30.5760938,27.5800781 30.7417969,27.5299219 30.9135938,27.4957031 C30.9196875,27.4945312 30.9255469,27.4940625 30.931875,27.4928906 C31.1046094,27.4598437 31.2820313,27.4410937 31.4646094,27.4410937 C31.6502344,27.4410937 31.8311719,27.4598437 32.0067188,27.4942969 C32.0111719,27.4952344 32.0153906,27.4954687 32.0198438,27.4961719 C32.1949219,27.5313281 32.3639063,27.5828906 32.525625,27.64875 C32.5282031,27.6499219 32.5310156,27.6508594 32.5338281,27.6517969 C32.8617188,27.7867969 33.1591406,27.9815625 33.4120313,28.2222656 L33.4099219,28.2173437 L31.4803125,22.2541406 L29.5335938,28.2077344" id="Shape" fill="#909393"></path>
                        <path d="M28.8480469,31.3345312 C28.78125,31.1716406 28.7292188,31.0014844 28.6938281,30.825 C28.6928906,30.82125 28.6926563,30.8172656 28.6921875,30.81375 C28.6572656,30.6370312 28.6380469,30.4546875 28.6380469,30.2676562 C28.6380469,30.1678125 28.6436719,30.0696094 28.65375,29.9728125 C28.6560938,29.9500781 28.6610156,29.9282812 28.6638281,29.9055469 C28.6734375,29.8314844 28.68375,29.7576562 28.69875,29.6854687 C28.7032031,29.6646094 28.71,29.6444531 28.7144531,29.6233594 C28.7317969,29.5504687 28.7500781,29.4775781 28.7725781,29.4065625 C28.7775,29.3917969 28.7835938,29.3777344 28.78875,29.3627344 C28.8145313,29.2867969 28.8421875,29.2113281 28.8742969,29.1384375 C28.8778125,29.13 28.8825,29.1220312 28.88625,29.1135937 C28.9214063,29.0348437 28.9596094,28.9575 29.0017969,28.8832031 C29.0036719,28.8801562 29.0055469,28.8773437 29.0069531,28.8745312 C29.1454688,28.6319531 29.3186719,28.4111719 29.52,28.2196875 L21.3307031,30.2428125 L21.315,30.2428125 L29.42625,32.2225781 C29.1832031,31.9692187 28.9865625,31.6708594 28.850625,31.3413281 C28.8494531,31.3392187 28.8489844,31.336875 28.8480469,31.3345312" id="Shape" fill="#676A6A"></path>
                        <path d="M47.2741406,29.8003125 C47.2792969,29.76375 47.2870312,29.7295312 47.2933594,29.6939062 C47.31375,29.5774219 47.338125,29.4639844 47.3695312,29.3561719 C47.3730469,29.3439844 47.3744531,29.3301562 47.3782031,29.3182031 L48.4467187,24.4253906 L48.4464844,21.635625 C47.5734375,20.9144531 46.6385156,20.5202344 45.6651562,20.5202344 C44.4351562,20.5202344 43.2883594,21.1994531 42.4307812,22.0382812 C41.4923437,22.9563281 40.7671875,24.1113281 40.1807812,25.276875 C40.1538281,25.3305469 40.1261719,25.3821094 40.0994531,25.4360156 C40.2801562,25.5925781 40.4589844,25.75125 40.6354687,25.9127344 C41.0348437,26.278125 41.4255469,26.653125 41.8110937,27.0332812 C41.990625,27.2104687 42.166875,27.3914062 42.3435937,27.5716406 C42.5310937,27.7626562 42.7188281,27.9532031 42.9035156,28.1472656 C43.1409375,28.396875 43.37625,28.6485937 43.6092187,28.9028906 C43.7074219,29.0097656 43.8053906,29.1171094 43.9024219,29.2249219 C44.1834375,29.5359375 44.4630469,29.8483594 44.7379687,30.165 L44.7384375,30.1654687 C44.7846094,30.21375 44.8169531,30.2484375 44.829375,30.2625 L47.2392187,30.2625 C47.2392187,30.2430469 47.2432031,30.2252344 47.2434375,30.2057812 C47.2457812,30.0665625 47.2553906,29.930625 47.2741406,29.8003125" id="Shape" fill="#E3DDDB"></path>
                        <path id="Shape" fill="#E3DDDB" d="M40.1214219,25.4726406 C40.1174219,25.4616406 40.1134219,25.4506406 40.1104219,25.4416406 C40.1044219,25.4526406 40.0984219,25.4646406 40.0924219,25.4756406 C40.0984219,25.4816406 40.1284219,25.5116406 40.1374219,25.5196406 C40.1324219,25.5036406 40.1274219,25.4886406 40.1214219,25.4726406"></path>
                        <path d="M11.0097656,33.3217969 C11.0167969,33.30375 11.0242969,33.2859375 11.0313281,33.2678906 C11.1864844,32.8621875 11.3564062,32.461875 11.5347656,32.0653125 C11.5846875,31.9549219 11.6360156,31.8454687 11.6875781,31.7357812 C11.8338281,31.4245312 11.9885156,31.1175 12.1488281,30.8132812 C12.2139844,30.6895312 12.2777344,30.5653125 12.3452344,30.4427344 C12.3825,30.375 12.4246875,30.3103125 12.4626562,30.2428125 C12.63375,29.9404687 12.8060156,29.6388281 12.9911719,29.3451562 C13.035,29.2750781 13.0809375,29.2071094 13.1257031,29.1379687 C13.3546875,28.7835937 13.5923437,28.4350781 13.8419531,28.0954687 C13.8635156,28.0659375 13.8839062,28.035 13.9057031,28.0054687 C14.1675,27.6534375 14.443125,27.3126562 14.7264844,26.9782031 C14.7869531,26.9069531 14.8469531,26.8352344 14.9083594,26.7644531 C15.1905469,26.4410156 15.4823437,26.1267187 15.7842187,25.8225 C15.84375,25.7629687 15.9044531,25.7048437 15.9644531,25.64625 C16.2850781,25.33125 16.6134375,25.0239844 16.9560937,24.7328906 C16.9567969,24.7321875 16.9577344,24.7314844 16.9582031,24.7307812 C18.3060937,20.2157812 22.6584375,17.44125 27.5383594,17.44125 C29.5024219,17.44125 31.4557031,18.0072656 33.1296094,19.03125 C34.8466406,20.0814844 36.0173437,21.1075781 36.92625,22.90125 C36.9307031,22.9103906 36.9353906,22.9192969 36.9398437,22.9282031 C36.9628125,22.9736719 36.9885937,23.0172656 37.0110937,23.0632031 C37.0117969,23.0646094 37.0127344,23.0660156 37.0134375,23.0676562 C37.0153125,23.0688281 37.0169531,23.07 37.0188281,23.0711719 C37.7791406,23.5394531 38.5045312,24.0703125 39.1940625,24.6520312 C39.4239844,24.8460937 39.6499219,25.0455469 39.871875,25.250625 C39.945,25.3176562 40.0202344,25.3814062 40.0924219,25.4496094 C40.0938281,25.4467969 40.095,25.4439844 40.0966406,25.4414062 C40.0973437,25.4395312 40.0982812,25.4374219 40.0992187,25.4357812 C40.1240625,25.3849219 40.1484375,25.333125 40.1735156,25.2829687 C40.8611719,20.9430469 43.0460156,18.5765625 45.3039844,18.5765625 C47.0060156,18.5765625 48.2432812,19.5914062 49.1777344,22.3232812 L49.1873437,22.3525781 C49.1880469,22.3535156 49.1889844,22.3546875 49.1896875,22.3558594 C49.4535937,22.6425 49.7107031,22.9584375 49.9600781,23.3046094 L49.9596094,23.304375 C49.9645312,23.3109375 49.9696875,23.3170312 49.9746094,23.3238281 L49.974375,23.3235937 L49.9746094,23.3238281 C49.9879687,23.3634375 49.9994531,23.4042187 50.0123437,23.4438281 L50.0123437,23.4435937 L49.9771875,23.3013281 C47.1682031,14.9852344 39.3025781,8.99789062 30.0382031,8.99789062 C18.4178906,8.99789062 8.99789062,18.4178906 8.99789062,30.0382031 C8.99789062,32.3289844 9.36398437,34.5344531 10.0436719,36.5866406 C10.044375,36.5828906 10.0455469,36.5789062 10.0464844,36.5746875 C10.1800781,35.9557031 10.3401562,35.3404687 10.5264844,34.7317969 C10.6717969,34.2574219 10.8332812,33.7867969 11.0097656,33.3217969" id="Shape" fill="#525353"></path>
                        <path d="M50.2914844,30.2707031 L49.5576562,31.0917188 L49.5576562,31.0914844 C49.5571875,31.0933594 49.5564844,31.095 49.5560156,31.096875 C49.528125,31.2049219 49.4939062,31.3057031 49.4561719,31.4029688 C49.4463281,31.4285156 49.4353125,31.4526563 49.4245312,31.4775 C49.3954687,31.5464063 49.3640625,31.6115625 49.3300781,31.6736719 C49.3120312,31.7069531 49.2942187,31.7407031 49.2747656,31.771875 C49.2442969,31.820625 49.2114844,31.8649219 49.1782031,31.9085156 C49.1301562,31.9710938 49.0795312,32.0273438 49.0263281,32.0770313 C49.0045312,32.0974219 48.9834375,32.1196875 48.9604687,32.1379688 C48.9194531,32.1710156 48.8765625,32.1984375 48.8329687,32.2235156 C48.8160937,32.2328906 48.7996875,32.2417969 48.7828125,32.2502344 C48.6775781,32.3015625 48.5671875,32.3315625 48.4523437,32.3315625 C47.7855469,32.3315625 47.2448437,31.4053125 47.2448437,30.2625 L44.8221094,30.2625 C44.8228125,30.2632031 44.8230469,30.2639063 44.8235156,30.264375 C45.2735156,30.78375 45.7155469,31.3101563 46.1517187,31.8417188 C46.156875,31.8482813 46.1620312,31.8546094 46.1674219,31.8609375 C46.5914062,32.3784375 47.0090625,32.900625 47.4222656,33.4263281 C47.4426562,33.4521094 47.4628125,33.4776563 47.4832031,33.5034375 C47.8750781,34.003125 48.2625,34.5060938 48.6466406,35.0104688 C48.6839062,35.0589844 48.7214062,35.1077344 48.7586719,35.1567188 C49.1648437,35.6910938 49.5672656,36.226875 49.966875,36.7633594 C49.9696875,36.7673438 49.9722656,36.7708594 49.9753125,36.7746094 C50.6674219,34.7266406 51.0546094,32.53875 51.07875,30.2625 L50.3976562,30.2367188 L50.2914844,30.2707031" id="Shape" fill="#FFFFFF"></path>
                        <path d="M26.8417969,20.5535156 C26.8966406,20.5492969 26.9514844,20.5460156 27.0060937,20.5422656 C27.3815625,20.5167187 27.759375,20.5005469 28.1402344,20.5005469 C29.2811719,20.5005469 30.3958594,20.6226562 31.4800781,20.8450781 L31.4803125,20.8450781 C32.2455469,21.0253125 33.6039844,21.3986719 34.6125,21.8245312 C35.0355469,22.003125 35.4515625,22.1988281 35.8591406,22.4102344 C35.878125,22.4203125 35.9102344,22.4378906 35.9517187,22.460625 C35.95875,22.4646094 35.9692969,22.4704687 35.9767969,22.4746875 C36.0145312,22.4957812 36.0557812,22.5185156 36.1040625,22.5459375 C36.105,22.5466406 36.1061719,22.5471094 36.1073437,22.5478125 C36.1640625,22.5799219 36.2259375,22.6150781 36.2908594,22.6516406 C36.29625,22.6546875 36.3016406,22.6579687 36.3072656,22.6610156 C36.5664844,22.8079687 36.8533594,22.9727344 36.9630469,23.0355469 C36.9771094,23.0435156 36.9836719,23.0472656 36.9911719,23.0517187 C36.9967969,23.055 37.0089844,23.0617969 37.0110937,23.0632031 C36.9885937,23.0172656 36.9628125,22.9736719 36.9398437,22.9282031 C36.9353906,22.9192969 36.9307031,22.9103906 36.92625,22.90125 C36.0173437,21.1075781 34.618125,19.5691406 32.9010937,18.5189062 C31.2271875,17.4949219 29.2739062,16.9289062 27.3096094,16.9289062 C22.4299219,16.9289062 18.3060937,20.2157812 16.9582031,24.7307812 C18.234375,23.6411719 19.6539844,22.7221875 21.181875,22.0244531 C22.9635937,21.2111719 24.8878125,20.701875 26.8417969,20.5535156" id="Shape" fill="#000000"></path>
                        <path d="M49.9746094,23.3238281 L49.974375,23.3235938 L49.9746094,23.3238281 C49.9696875,23.3170313 49.9645312,23.3109375 49.9596094,23.304375 L49.9600781,23.3046094 C49.7107031,22.9584375 49.4535937,22.6425 49.1896875,22.3558594 C49.1892187,22.3549219 49.1882812,22.35375 49.1875781,22.3530469 C49.1882812,22.35375 49.1892187,22.3549219 49.1896875,22.3558594 C49.1875781,22.3532813 49.1852344,22.3502344 49.1828906,22.3476563 C49.0628906,22.2178125 48.9421875,22.0938281 48.819375,21.9761719 C48.7732031,21.931875 48.7253906,21.8932031 48.67875,21.8507813 C48.6016406,21.7807031 48.525,21.7082813 48.4467187,21.6440625 L48.4467187,24.4352344 L49.5152344,29.3285156 L49.5152344,29.3282813 C49.5269531,29.36625 49.5410156,29.401875 49.5513281,29.44125 L50.2914844,30.2707031 L50.29875,30.2625 L51.0733594,30.2625 C51.0742969,30.1907813 51.07875,30.12 51.07875,30.0480469 L51.07875,30.046875 C51.0785156,27.7389844 50.6992969,25.5213281 50.0123437,23.4435938 L50.0123437,23.4438281 C49.9994531,23.4042188 49.9879687,23.3634375 49.9746094,23.3238281" id="Shape" fill="#BBBCBD"></path>
                        <path d="M42.4307812,22.0382813 C43.2883594,21.1994531 44.4351562,20.5202344 45.6651562,20.5202344 C46.6385156,20.5202344 47.5734375,20.9144531 48.4464844,21.635625 C48.4464844,21.635625 48.4467187,21.6419531 48.4467187,21.6440625 L48.4467187,21.6454688 L48.4467187,21.6440625 C48.525,21.7082813 48.6016406,21.7807031 48.67875,21.8507813 C48.7253906,21.8932031 48.7732031,21.931875 48.819375,21.9761719 C48.9421875,22.0938281 49.0628906,22.2178125 49.1828906,22.3476563 C49.1852344,22.3502344 49.1875781,22.3532813 49.1896875,22.3558594 C49.1892187,22.3549219 49.1882812,22.35375 49.1875781,22.3530469 L49.1873437,22.3528125 L49.1777344,22.3232813 C48.2432812,19.5914063 46.7355469,17.8164844 45.0339844,17.8164844 C42.7757812,17.8164844 40.8611719,20.9430469 40.1735156,25.2829688 L40.1807812,25.276875 C40.7671875,24.1113281 41.4923437,22.9563281 42.4307812,22.0382813" id="Shape" fill="#000000"></path>
                        <path d="M39.3794531,48.7115625 C39.3794531,48.7115625 39.0754687,48.470625 38.6894531,48.0264844 C38.5989844,47.9224219 38.5057031,47.8110937 38.4086719,47.6842969 C38.3357812,47.589375 38.2619531,47.4878906 38.188125,47.3803125 C38.1389062,47.3085937 38.0901562,47.2340625 38.0416406,47.1571875 C37.895625,46.9263281 37.7791406,46.6453125 37.6507031,46.3675781 C37.5021094,46.0460156 37.5016406,45.8320312 37.4163281,45.5325 C37.3553906,45.3182812 37.3047656,45.0944531 37.2670312,44.8614844 C37.2105469,44.5122656 37.1835937,44.1424219 37.1960156,43.7533594 C37.2025781,43.539375 37.2246094,43.3178906 37.2567187,43.0924219 C37.2876562,42.875625 37.3303125,42.6536719 37.3872656,42.4270312 C37.5574219,41.7466406 37.8515625,41.0219531 38.3104687,40.2569531 C38.3116406,40.2548437 38.4260156,39.9970312 38.4271875,39.9949219 C38.5771875,39.7450781 38.6104687,39.7560937 38.7529687,39.5153906 C40.7601562,36.1279687 41.8429687,33.5664844 41.3132812,29.6224219 C41.2753125,29.3409375 41.1719531,28.7102344 41.1154687,28.4139844 C41.0854687,28.6188281 40.9722656,29.2715625 40.9689844,29.285625 C40.9490625,29.375625 40.8944531,29.4733594 40.8738281,29.5345312 C40.0019531,32.115 38.6294531,34.0132031 36.6546094,36.1565625 C36.3869531,36.4469531 36.1066406,36.7415625 35.8197656,37.0389844 C35.3369531,37.539375 34.8307031,38.0505469 34.2951562,38.5835156 C34.0814062,38.7960937 33.8634375,39.0117187 33.6417187,39.2315625 C33.4380469,39.433125 33.1846875,39.8641406 32.8823437,40.1817187 C32.6957812,40.7041406 32.4836719,41.2933594 32.304375,41.9130469 C32.2235156,41.8823437 32.1464062,41.8549219 32.0641406,41.8230469 C28.2278906,40.3392187 25.659375,38.3566406 25.659375,38.3566406 C25.659375,38.3566406 27.635625,40.9298437 30.9651562,43.3453125 C31.2874219,43.5792187 31.6052344,43.7817187 31.9164844,43.96125 C31.7791406,46.1353125 32.7382031,48.2224219 37.0673437,48.8449219 C37.7992969,48.9501562 38.5488281,48.9452344 39.30375,48.8601562 C39.29625,48.8376562 39.3459375,48.838125 39.3419531,48.8257031 C39.3377344,48.8130469 39.3822656,48.7797656 39.3822656,48.7797656" id="Shape" fill="#000000"></path>
                        <path d="M37.0638281,43.1153906 C40.9071094,43.7355469 46.5951562,43.6338281 52.5,40.8691406 C52.6422656,40.8025781 52.7990625,40.9778906 52.9413281,40.9080469 C52.9413281,40.9080469 48.905625,45.03 44.0859375,47.3603906 C43.9450781,47.4283594 43.8060937,47.5007812 43.6638281,47.5654687 C43.198125,47.7782812 42.7244531,47.9636719 42.2489062,48.1347656 C41.3163281,48.4699219 40.3713281,48.7242187 39.433125,48.8416406 C39.39,48.8472656 39.346875,48.8554687 39.30375,48.8601562 C39.29625,48.8376562 39.2901562,48.819375 39.2861719,48.8069531 C39.2819531,48.7942969 39.2798437,48.7875 39.2798437,48.7875 C39.2798437,48.7875 38.975625,48.5463281 38.5896094,48.1021875 C38.4991406,47.998125 38.4058594,47.8867969 38.3090625,47.76 C38.2361719,47.6650781 38.1623437,47.5635937 38.0885156,47.4560156 C38.0392969,47.3842969 37.9903125,47.3097656 37.9417969,47.2328906 C37.7960156,47.0020312 37.6542187,46.7467969 37.5257812,46.4692969 C37.3975781,46.1917969 37.2827344,45.8915625 37.1913281,45.57 C37.1301562,45.3557812 37.0795312,45.1319531 37.0417969,44.8989844 C36.9853125,44.5495312 36.9585937,44.1799219 36.9707812,43.7908594 C36.9773437,43.5766406 36.999375,43.3553906 37.0314844,43.1299219 L37.0638281,43.1153906" id="Shape" fill="#9F2254"></path>
                        <path d="M34.3092187,38.7398438 C34.845,38.206875 35.35125,37.6957031 35.8340625,37.1953125 C36.1207031,36.8978906 36.40125,36.6032813 36.6689062,36.3128906 C38.6435156,34.1695313 40.093125,32.16375 40.9652344,29.5832813 C40.985625,29.5221094 41.00625,29.4414844 41.0261719,29.3507813 C41.0294531,29.3367188 41.0325,29.3233594 41.0355469,29.3088281 C41.0559375,29.2125 41.0758594,29.1053906 41.0957812,28.9846875 C41.10375,28.9014844 41.3646094,28.7336719 41.371875,28.655625 C41.1532031,27.5320313 40.6492969,26.3507813 40.0992187,25.4489063 C40.100625,25.4526563 40.1017969,25.4561719 40.1029687,25.4599219 C40.1008594,25.4580469 40.0938281,25.4510156 40.0924219,25.4496094 C40.0202344,25.3814063 39.945,25.3176563 39.871875,25.250625 C39.6499219,25.0455469 39.4239844,24.8460938 39.1940625,24.6520313 C38.5042969,24.0703125 37.7791406,23.5394531 37.0188281,23.0711719 C37.0572656,23.7025781 37.081875,24.3332813 37.0884375,24.9632813 C37.089375,25.0340625 37.0875,25.1046094 37.0875,25.1751563 C37.0886719,25.4196094 37.089375,25.6642969 37.0846875,25.90875 C37.0785937,26.2235156 37.0675781,26.5385156 37.0514062,26.8530469 C37.0394531,27.0855469 37.0246875,27.3175781 37.0066406,27.5498438 C37.0047656,27.5739844 37.0019531,27.598125 37.0003125,27.6222656 C36.9297656,28.5021094 36.8184375,29.3782031 36.6588281,30.2428125 L36.3813281,31.5550781 C35.8017187,33.9049219 34.6244531,36.0363281 33.6564844,38.2371094 C33.3998437,38.8207031 33.1563281,39.4108594 32.9428125,40.0120313 C32.9233594,40.0671094 32.9025,40.125 32.8823437,40.1817188 C33.1846875,39.8641406 33.4523437,39.5894531 33.6557812,39.3878906 C33.8777344,39.1682813 34.0957031,38.9524219 34.3092187,38.7398438" id="Shape" fill="#FCB03F"></path>
                        <path d="M21.6089063,51.3780469 C23.0172656,50.7550781 24.320625,50.3639062 25.8698438,50.0585156 C25.8609375,49.7221875 25.8457031,49.3867969 25.8173438,49.0535156 C26.4808594,47.3322656 27.0932813,45.6 27.6473438,43.8578906 C26.6594531,43.95375 25.6788281,44.1060937 24.7096875,44.311875 C23.9908594,44.4644531 23.2816406,44.6561719 22.5782813,44.8680469 C22.0132031,45.0382031 21.455625,45.2336719 20.9025,45.4415625 L23.0894531,45.97125 L21.3297656,51.4945312 L21.6089063,51.3780469" id="Shape" fill="#525353"></path>
                        <path d="M48.6466406,35.0104687 C48.2625,34.5060937 47.8750781,34.003125 47.4832031,33.5034375 C47.4630469,33.4776562 47.4424219,33.4521094 47.4222656,33.4263281 C47.0090625,32.900625 46.5914063,32.3784375 46.1674219,31.8609375 C46.1620313,31.8546094 46.156875,31.8482812 46.1517188,31.8417187 C45.7155469,31.3101562 45.2735156,30.78375 44.8235156,30.264375 C44.7951563,30.2313281 44.7667969,30.1978125 44.7379688,30.165 C44.4630469,29.8483594 44.1834375,29.5359375 43.9024219,29.2249219 C43.8051563,29.1173437 43.7074219,29.0097656 43.6092188,28.9028906 C43.37625,28.6485937 43.1409375,28.396875 42.9035156,28.1472656 C42.7185938,27.9534375 42.5313281,27.7624219 42.3435938,27.5716406 C42.166875,27.3914062 41.990625,27.2104687 41.8110938,27.0332812 C41.4253125,26.6533594 41.0348438,26.278125 40.6354688,25.9127344 C40.45875,25.75125 40.2799219,25.5923437 40.0992188,25.4357812 C40.0982813,25.4374219 40.0973438,25.4395312 40.0966406,25.4414062 C40.4767969,26.5340625 40.910625,27.6403125 41.1278906,28.7798437 C41.184375,29.0763281 41.2310156,29.3646094 41.2689844,29.6463281 C41.7986719,33.5901562 40.5349219,36.1652344 38.5279688,39.5526562 C38.3838281,39.7954687 38.2364063,40.0425 38.0852344,40.2942187 C37.6263281,41.0596875 37.3324219,41.7841406 37.1620313,42.4645312 C37.1053125,42.6911719 37.0624219,42.913125 37.0314844,43.1299219 C40.9673438,43.7650781 46.8857813,43.8834375 52.9413281,40.9080469 C52.9413281,40.9080469 51.75375,39.1626562 49.966875,36.7633594 C49.5672656,36.226875 49.1648438,35.6910938 48.7586719,35.1567187 C48.7216406,35.1077344 48.6839063,35.0589844 48.6466406,35.0104687" id="Shape" fill="#DF0067"></path>
                        <path d="M21.1207031,52.4817188 L23.0894531,45.97125 L20.9025,45.4415625 C20.4126563,45.6255469 19.9272656,45.8217188 19.4482031,46.035 L17.4984375,52.4817188 L19.6750781,52.5157031 L21.1207031,52.4817188" id="Shape" fill="#AA9678"></path>
                        <path d="M22.5046875,49.665 C22.696875,49.7388281 22.8923437,49.8053906 23.0873437,49.8735938 C25.2635156,50.6364844 27.6011719,51.0564844 30.0384375,51.0564844 C32.8174219,51.0564844 35.4679687,50.5122656 37.8965625,49.5335156 C38.025,49.4819531 38.1508594,49.4252344 38.2778906,49.3710938 C38.4841406,49.2832031 38.6889844,49.1929688 38.8917187,49.0989844 C39.073125,49.0146094 39.2545312,48.9309375 39.433125,48.8416406 C39.39,48.8472656 39.346875,48.8554688 39.30375,48.8601563 C38.5488281,48.9452344 37.7992969,48.9501563 37.0673437,48.8449219 C32.7382031,48.2224219 31.7791406,46.1353125 31.9164844,43.96125 C31.6052344,43.7817188 31.2874219,43.5792188 30.9651562,43.3453125 C27.635625,40.9298438 25.659375,38.3566406 25.659375,38.3566406 C25.659375,38.3566406 28.2278906,40.3392188 32.0641406,41.8230469 C32.1464062,41.8549219 32.2235156,41.8823438 32.304375,41.9130469 C32.4836719,41.2933594 32.6957812,40.7041406 32.8823437,40.1817188 C32.9025,40.125 32.9233594,40.0671094 32.9428125,40.0120313 C33.1563281,39.4108594 33.3998437,38.8207031 33.6564844,38.2371094 C34.6244531,36.0363281 35.8017187,33.9049219 36.3813281,31.5550781 L36.6588281,30.2428125 L34.2911719,30.2428125 L34.2909375,30.2430469 C34.2909375,30.2444531 34.2911719,30.2460938 34.2911719,30.2477344 L34.2902344,30.2482031 C34.2902344,30.2545313 34.2911719,30.2608594 34.2911719,30.2676563 C34.2911719,30.6578906 34.2119531,31.0296094 34.0689844,31.3678125 C33.9975,31.5370313 33.9098437,31.6975781 33.8083594,31.8480469 C33.6051562,32.1485156 33.3457031,32.4082031 33.0447656,32.6114063 C32.8945312,32.713125 32.73375,32.8005469 32.5647656,32.8717969 C32.2265625,33.015 31.8548437,33.0942188 31.4646094,33.0942188 C31.3654687,33.0942188 31.2675,33.0888281 31.1711719,33.07875 C31.1484375,33.0764063 31.1266406,33.0714844 31.1041406,33.0686719 C31.0300781,33.0590625 30.9564844,33.0489844 30.885,33.0342188 C30.8648437,33.0297656 30.845625,33.0234375 30.8257031,33.01875 C30.7521094,33.001875 30.6785156,32.9835938 30.6072656,32.9608594 C30.5941406,32.9564063 30.5814844,32.9510156 30.5683594,32.9465625 C30.49125,32.9205469 30.4146094,32.8926563 30.3405469,32.8603125 C30.33375,32.8575 30.3274219,32.8539844 30.3208594,32.8509375 C30.2409375,32.8153125 30.1624219,32.776875 30.0864844,32.7342188 L30.0829687,32.7321094 C29.8396875,32.5947656 29.6184375,32.4229688 29.42625,32.2225781 L21.315,30.2428125 L12.4626562,30.2428125 C12.4246875,30.3103125 12.3825,30.375 12.3452344,30.4427344 C12.2777344,30.5653125 12.2139844,30.6897656 12.1488281,30.8132813 C11.9885156,31.1175 11.8338281,31.4245313 11.6875781,31.7357813 C11.6360156,31.8452344 11.5846875,31.9549219 11.5347656,32.0653125 C11.3564062,32.461875 11.1864844,32.8621875 11.0313281,33.2678906 C11.0242969,33.2859375 11.0167969,33.30375 11.0097656,33.3217969 C10.8332812,33.7867969 10.6717969,34.2574219 10.5264844,34.7317969 C10.3401562,35.3404688 10.1800781,35.9557031 10.0464844,36.5746875 C11.4400781,40.8253125 14.1515625,44.4778125 17.6960156,47.0521875 C17.7991406,47.1269531 17.9078906,47.1935156 18.0124219,47.2666406 C18.6119531,47.6857031 19.2314062,48.0778125 19.8740625,48.4335938 C20.7178125,48.9011719 21.5948437,49.3157813 22.5046875,49.665" id="Shape" fill="#FFFFFF"></path>
                        <path d="M43.7296875,54.6970312 C43.6753125,54.1378125 43.6415625,53.5739062 43.6415625,53.0039062 C43.6415625,52.66125 43.3638281,52.3830469 43.0209375,52.3830469 L16.9790625,52.3830469 C16.6361719,52.3830469 16.3582031,52.66125 16.3582031,53.0039062 C16.3582031,53.5739062 16.3246875,54.1378125 16.2700781,54.6970312 C16.2096094,55.3155469 16.1142188,55.9258594 15.9890625,56.5270312 C16.3666406,56.7267187 16.7472656,56.9210156 17.1344531,57.1052344 C17.3889844,55.9867969 17.5460156,54.8376562 17.5872656,53.6650781 C17.5879688,53.6517187 17.589375,53.638125 17.5898438,53.6247656 L42.4101563,53.6247656 C42.410625,53.638125 42.4120313,53.6517187 42.4125,53.6650781 C42.4539844,54.8376562 42.6110156,55.9867969 42.8655469,57.1052344 C43.2527344,56.9210156 43.6333594,56.7267187 44.0109375,56.5270312 C43.8857813,55.9258594 43.7903906,55.3155469 43.7296875,54.6970312" id="Shape" fill="#8B7460"></path>
                    </g>
                </g>
            </g>
        </g>
    </g>
</svg>