<?xml version="1.0" encoding="UTF-8" standalone="no"?>
<svg width="87px" height="87px" viewBox="0 0 87 87" version="1.1" xmlns="http://www.w3.org/2000/svg" xmlns:xlink="http://www.w3.org/1999/xlink">
    <!-- Generator: Sketch 3.6.1 (26313) - http://www.bohemiancoding.com/sketch -->
    <title>shopify</title>
    <desc>Created with Sketch.</desc>
    <defs></defs>
    <g id="V2" stroke="none" stroke-width="1" fill="none" fill-rule="evenodd">
        <g id="Lobby" transform="translate(-1209.000000, -333.000000)">
            <g id="Group-13-Copy" transform="translate(1121.000000, 303.000000)">
                <g id="shopify" transform="translate(88.000000, 30.000000)">
                    <circle id="Oval-9" fill="#FFFFFF" cx="43.5" cy="43.5" r="43.5"></circle>
                    <g id="Group" transform="translate(17.000000, 14.000000)">
                        <path d="M24.4014286,2.41238095 C24.7314286,2.41238095 25.0638095,2.52380952 25.3819048,2.74333333 C22.9319048,3.89571429 20.3057143,6.8 19.1966667,12.5980952 C17.5757143,13.1 15.9914286,13.5904762 14.5266667,14.0442857 C15.8257143,9.62142857 18.9104762,2.41238095 24.4014286,2.41238095 L24.4014286,2.41238095 Z M26.6728571,4.56190476 C27.1428571,5.74 27.4485714,7.43047619 27.4485714,9.71190476 C27.4485714,9.82857143 27.447619,9.9352381 27.4466667,10.0433333 C25.5861905,10.6195238 23.5647619,11.2452381 21.5385714,11.8728571 C22.6761905,7.48238095 24.8085714,5.36190476 26.6728571,4.56190476 L26.6728571,4.56190476 Z M32.312381,8.53761905 C31.4633333,8.80047619 30.4980952,9.09904762 29.4519048,9.42285714 C29.4528571,9.22142857 29.4538095,9.02285714 29.4538095,8.80619048 C29.4538095,6.91571429 29.1914286,5.39380952 28.7704762,4.18714286 C30.4614286,4.39952381 31.587619,6.32333333 32.312381,8.53761905 L32.312381,8.53761905 Z M46.0419048,11.9028571 C46.0009524,11.6047619 45.74,11.44 45.5242857,11.4219048 C45.3090476,11.4038095 40.7528571,11.0661905 40.7528571,11.0661905 C40.7528571,11.0661905 37.5885714,7.9252381 37.2414286,7.57761905 C36.8938095,7.23 36.2152381,7.3352381 35.9519048,7.41285714 C35.9128571,7.42428571 35.2604762,7.62571429 34.1809524,7.95952381 C33.1238095,4.91809524 31.2585714,2.12285714 27.9766667,2.12285714 C27.8861905,2.12285714 27.7928571,2.12714286 27.6995238,2.13190476 C26.7661905,0.897619048 25.61,0.361428571 24.6114286,0.361428571 C16.9666667,0.361428571 13.3142857,9.91857143 12.1690476,14.7747619 C9.19857143,15.6952381 7.08809524,16.3495238 6.81857143,16.4342857 C5.16047619,16.9547619 5.10809524,17.0066667 4.89047619,18.5690476 C4.72619048,19.7519048 0.387619048,53.3042857 0.387619048,53.3042857 L34.1947619,59.6385714 L52.5128571,55.6757143 C52.5128571,55.6757143 46.082381,12.2014286 46.0419048,11.9028571 L46.0419048,11.9028571 Z" id="Fill-5" fill="#8CB849"></path>
                        <path d="M45.5242857,11.4219048 C45.3090476,11.4038095 40.7528571,11.0661905 40.7528571,11.0661905 C40.7528571,11.0661905 37.5885714,7.9252381 37.2414286,7.57761905 C37.1114286,7.44761905 36.9361905,7.38142857 36.7528571,7.35285714 L34.1966667,59.6380952 L52.5128571,55.6757143 C52.5128571,55.6757143 46.082381,12.2014286 46.0419048,11.9028571 C46.0009524,11.6047619 45.74,11.44 45.5242857,11.4219048" id="Fill-6" fill="#5A873D"></path>
                        <path d="M27.9766667,21.5433333 L25.7180952,28.262381 C25.7180952,28.262381 23.7390476,27.2057143 21.3133333,27.2057143 C17.7571429,27.2057143 17.5780952,29.437619 17.5780952,30 C17.5780952,33.0685714 25.5771429,34.2442857 25.5771429,41.4319048 C25.5771429,47.0866667 21.9904762,50.7280952 17.1542857,50.7280952 C11.3509524,50.7280952 8.38333333,47.1161905 8.38333333,47.1161905 L9.93714286,41.982381 C9.93714286,41.982381 12.987619,44.6014286 15.5619048,44.6014286 C17.2438095,44.6014286 17.9280952,43.2771429 17.9280952,42.31 C17.9280952,38.3066667 11.3657143,38.1280952 11.3657143,31.5509524 C11.3657143,26.0152381 15.3390476,20.6580952 23.3595238,20.6580952 C26.45,20.6580952 27.9766667,21.5433333 27.9766667,21.5433333" id="Fill-7" fill="#FFFFFF"></path>
                    </g>
                </g>
            </g>
        </g>
    </g>
</svg>