<?xml version="1.0" encoding="UTF-8" standalone="no"?>
<svg width="87px" height="87px" viewBox="0 0 87 87" version="1.1" xmlns="http://www.w3.org/2000/svg" xmlns:xlink="http://www.w3.org/1999/xlink">
    <!-- Generator: Sketch 3.6.1 (26313) - http://www.bohemiancoding.com/sketch -->
    <title>woocommerce</title>
    <desc>Created with Sketch.</desc>
    <defs></defs>
    <g id="V2" stroke="none" stroke-width="1" fill="none" fill-rule="evenodd">
        <g id="Lobby" transform="translate(-1209.000000, -705.000000)">
            <g id="Group-7" transform="translate(1121.000000, 675.000000)">
                <g id="Group-5-Copy">
                    <g id="woocommerce" transform="translate(88.000000, 30.000000)">
                        <circle id="Oval-9" fill="#FFFFFF" cx="43.5" cy="43.5" r="43.5"></circle>
                        <g id="Group" transform="translate(9.260274, 23.000000)">
                            <path d="M6.65547945,0.0561643836 L62.5671233,0.0561643836 C66.1054795,0.0561643836 68.969863,2.92054795 68.969863,6.45890411 L68.969863,27.8013699 C68.969863,31.339726 66.1054795,34.2041096 62.5671233,34.2041096 L42.5164384,34.2041096 L45.2684932,40.9438356 L33.1650685,34.2041096 L6.68356164,34.2041096 C3.14520548,34.2041096 0.280821918,31.339726 0.280821918,27.8013699 L0.280821918,6.45890411 C0.252739726,2.94863014 3.11712329,0.0561643836 6.65547945,0.0561643836 L6.65547945,0.0561643836 Z" id="Shape" fill="#9B5C8F"></path>
                            <path d="M3.70684932,5.86917808 C4.1,5.33561644 4.68972603,5.05479452 5.4760274,4.99863014 C6.90821918,4.88630137 7.72260274,5.56027397 7.91917808,7.02054795 C8.78972603,12.889726 9.74452055,17.860274 10.7554795,21.9321918 L16.9054795,10.2219178 C17.4671233,9.15479452 18.1691781,8.59315068 19.0116438,8.5369863 C20.2472603,8.45273973 21.0054795,9.2390411 21.3143836,10.8958904 C22.0164384,14.6308219 22.9150685,17.8041096 23.9821918,20.5 C24.7123288,13.3671233 25.9479452,8.22808219 27.6890411,5.05479452 C28.110274,4.26849315 28.7280822,3.87534247 29.5424658,3.81917808 C30.1883562,3.7630137 30.7780822,3.95958904 31.3116438,4.38082192 C31.8452055,4.80205479 32.1260274,5.33561644 32.1821918,5.98150685 C32.210274,6.4869863 32.1260274,6.90821918 31.9013699,7.32945205 C30.8061644,9.35136986 29.9075342,12.7493151 29.1773973,17.4671233 C28.4753425,22.0445205 28.2226027,25.6109589 28.3910959,28.1664384 C28.4472603,28.8684932 28.3349315,29.4863014 28.0541096,30.019863 C27.7171233,30.6376712 27.2116438,30.9746575 26.5657534,31.0308219 C25.8356164,31.0869863 25.0773973,30.75 24.3472603,29.9917808 C21.7356164,27.3239726 19.6575342,23.3363014 18.1410959,18.0287671 C16.3157534,21.6232877 14.9678082,24.3191781 14.0972603,26.1164384 C12.440411,29.289726 11.0363014,30.9184932 9.85684932,31.0027397 C9.09863014,31.0589041 8.45273973,30.4130137 7.89109589,29.0650685 C6.45890411,25.3863014 4.91438356,18.2815068 3.25753425,7.75068493 C3.17328767,7.02054795 3.31369863,6.37465753 3.70684932,5.86917808 L3.70684932,5.86917808 Z" id="Shape" fill="#FFFFFF"></path>
                            <path d="M64.0835616,10.2780822 C63.0726027,8.50890411 61.5842466,7.44178082 59.590411,7.02054795 C59.0568493,6.90821918 58.5513699,6.85205479 58.0739726,6.85205479 C55.3780822,6.85205479 53.1876712,8.25616438 51.4746575,11.0643836 C50.0143836,13.4513699 49.2842466,16.0910959 49.2842466,18.9835616 C49.2842466,21.1458904 49.7335616,22.9993151 50.6321918,24.5438356 C51.6431507,26.3130137 53.1315068,27.380137 55.1253425,27.8013699 C55.6589041,27.9136986 56.1643836,27.969863 56.6417808,27.969863 C59.3657534,27.969863 61.5561644,26.5657534 63.2410959,23.7575342 C64.7013699,21.3424658 65.4315068,18.7027397 65.4315068,15.810274 C65.4315068,13.619863 64.9821918,11.7945205 64.0835616,10.2780822 L64.0835616,10.2780822 L64.0835616,10.2780822 Z M60.5452055,18.0568493 C60.1520548,19.910274 59.45,21.2863014 58.4109589,22.2130137 C57.5965753,22.9431507 56.8383562,23.2520548 56.1363014,23.1116438 C55.4623288,22.9712329 54.9006849,22.3815068 54.4794521,21.2863014 C54.1424658,20.4157534 53.9739726,19.5452055 53.9739726,18.7308219 C53.9739726,18.0287671 54.030137,17.3267123 54.1705479,16.6808219 C54.4232877,15.5294521 54.9006849,14.4061644 55.6589041,13.3390411 C56.5856164,11.9630137 57.5684932,11.4013699 58.5794521,11.5979452 C59.2534247,11.7383562 59.8150685,12.3280822 60.2363014,13.4232877 C60.5732877,14.2938356 60.7417808,15.1643836 60.7417808,15.9787671 C60.7417808,16.7089041 60.6575342,17.4109589 60.5452055,18.0568493 L60.5452055,18.0568493 L60.5452055,18.0568493 Z" id="Shape" fill="#FFFFFF"></path>
                            <path d="M46.4760274,10.2780822 C45.4650685,8.50890411 43.9486301,7.44178082 41.9828767,7.02054795 C41.4493151,6.90821918 40.9438356,6.85205479 40.4664384,6.85205479 C37.7705479,6.85205479 35.580137,8.25616438 33.8671233,11.0643836 C32.4068493,13.4513699 31.6767123,16.0910959 31.6767123,18.9835616 C31.6767123,21.1458904 32.1260274,22.9993151 33.0246575,24.5438356 C34.0356164,26.3130137 35.5239726,27.380137 37.5178082,27.8013699 C38.0513699,27.9136986 38.5568493,27.969863 39.0342466,27.969863 C41.7582192,27.969863 43.9486301,26.5657534 45.6335616,23.7575342 C47.0938356,21.3424658 47.8239726,18.7027397 47.8239726,15.810274 C47.8239726,13.619863 47.3746575,11.7945205 46.4760274,10.2780822 L46.4760274,10.2780822 L46.4760274,10.2780822 Z M42.9376712,18.0568493 C42.5445205,19.910274 41.8424658,21.2863014 40.8034247,22.2130137 C39.9890411,22.9431507 39.2308219,23.2520548 38.5287671,23.1116438 C37.8547945,22.9712329 37.2931507,22.3815068 36.8719178,21.2863014 C36.5349315,20.4157534 36.3664384,19.5452055 36.3664384,18.7308219 C36.3664384,18.0287671 36.4226027,17.3267123 36.5630137,16.6808219 C36.8157534,15.5294521 37.2931507,14.4061644 38.0513699,13.3390411 C38.9780822,11.9630137 39.9609589,11.4013699 40.9719178,11.5979452 C41.6458904,11.7383562 42.2075342,12.3280822 42.6287671,13.4232877 C42.9657534,14.2938356 43.1342466,15.1643836 43.1342466,15.9787671 C43.1342466,16.7089041 43.0780822,17.4109589 42.9376712,18.0568493 L42.9376712,18.0568493 L42.9376712,18.0568493 Z" id="Shape" fill="#FFFFFF"></path>
                        </g>
                    </g>
                </g>
            </g>
        </g>
    </g>
</svg>